<ttFont>
          <CharString index="0">
            rmoveto
            156 90 88 181 27 hvcurveto
            3 30 3 24 22 vvcurveto
            129 -79 76 -136 -156 -90 -88 -181 -27 vhcurveto
            -33 callgsubr
            vhcurveto
            4 74 rmoveto
            -85 -43 43 78 -2 hvcurveto
            20 1 26 4 28 vhcurveto
            146 21 55 62 105 hhcurveto
            86 43 -43 -79 2 hvcurveto
            -20 -2 -26 -4 -28 vhcurveto
            -146 -21 -55 -61 -105 hhcurveto
            return
          </CharString>
          <CharString index="1">
            rmoveto
            381 hlineto
            8 44 rlineto
            5 27 3 24 23 vvcurveto
            119 -74 62 -132 -200 -84 -155 -187 -142 77 -66 155 113 98 63 128 21 vhcurveto
            34 callsubr
            304 73 rmoveto
            -291 hlineto
            98 24 59 55 92 hhcurveto
            72 48 -32 -82 -12 0 -13 -4 -14 hvcurveto
            return
          </CharString>
          <CharString index="2">
            rmoveto
            -23 callgsubr
            100 hlineto
            -96 callsubr
            45 83 rmoveto
            185 338 rlineto
            5 hlineto
            66 -338 rlineto
            return
          </CharString>
          <CharString index="3">
            56 hlineto
            5 28 rlineto
            34 3 35 20 44 vvcurveto
            40 -45 9 -36 -21 -31 -3 -5 -22 vhcurveto
            -7 -39 rlineto
            60 hlineto
            18 10 -3 -11 return
          </CharString>
          <CharString index="4">
            534 -64 callgsubr
            -439 hlineto
            40 226 rlineto
            389 hlineto
            14 83 rlineto
            -389 hlineto
            37 211 rlineto
            433 -64 callgsubr
            -528 hlineto
            return
          </CharString>
          <CharString index="5">
            -65 callgsubr
            -18 -45 -35 -27 -53 -12 rrcurveto
            29 -36 -49 15 -61 hhcurveto
            -156 -90 -88 -181 -27 hvcurveto
            -33 callgsubr
            156 90 88 181 27 vhcurveto
            3 30 3 24 22 vvcurveto
            46 -10 39 -19 31 vhcurveto
            81 29 48 64 13 90 9 54 rcurveline
            -216 -417 rmoveto
            -146 -21 -55 -61 -105 hhcurveto
            -85 -43 43 78 -2 hvcurveto
            20 1 26 4 28 vhcurveto
            146 21 55 62 105 hhcurveto
            86 43 -43 -79 2 hvcurveto
            -20 -2 -26 -4 -28 vhcurveto
            return
          </CharString>
          <CharString index="6">
            rmoveto
            137 79 81 164 28 hvcurveto
            66 callsubr
            -88 hlineto
            -49 -281 -77 callgsubr
            56 323 -69 callgsubr
            -57 -329 rlineto
            -4 -23 -3 -24 -18 vvcurveto
            -90 60 -34 97 59 63 30 42 37 vhcurveto
            7 hlineto
            -4 -21 rlineto
            -114 -21 -54 -55 -83 hhcurveto
            -58 -36 24 61 -2 hvcurveto
            -86 -10 hlineto
            -98 73 -49 111 vhcurveto
            endchar
          </CharString>
          <CharString index="7">
            rmoveto
            -86 hlineto
            82 -135 rlineto
            84 hlineto
            129 135 rlineto
            -94 hlineto
            -70 -79 rlineto
            return
          </CharString>
          <CharString index="8">
            -61 -8 31 22 -1 hvcurveto
            -61 hlineto
            -2 -8 0 -7 -8 vvcurveto
            -48 31 -46 103 99 50 62 55 10 vhcurveto
            return
          </CharString>
          <CharString index="9">
            -103 -18 -85 -61 -80 hhcurveto
            -45 -33 15 54 14 2 19 3 20 hvcurveto
            return
          </CharString>
          <CharString index="10">
            -5 17 22 -3 39 hhcurveto
            102 63 97 112 59 hvcurveto
            261 499 rlineto
            -92 hlineto
            -130 -263 rlineto
            -33 -66 -43 -99 0 vvcurveto
            -5 hlineto
            0 -16 106 -12 59 vhcurveto
            -52 263 rlineto
            -91 hlineto
            110 -526 rlineto
            -90 -41 -56 -27 -57 hhcurveto
            return
          </CharString>
          <CharString index="11">
            -145 -29 callsubr
            -123 hlineto
            -386 -686 rlineto
            100 hlineto
            100 183 rlineto
            return
          </CharString>
          <CharString index="12">
            -23 -71 rlineto
            -6 hlineto
            55 -28 -58 28 -73 hhcurveto
            -149 -102 -140 -209 -125 66 -56 104 70 52 27 45 41 hvcurveto
            -63 385 rmoveto
            76 32 -43 -80 -130 -59 -131 -116 -77 -35 30 81 150 58 123 121 hvcurveto
            endchar
          </CharString>
          <CharString index="13">
            rmoveto
            72 hlineto
            63 357 rlineto
            -337 hlineto
            -15 -83 rlineto
            242 hlineto
            -1 -10 rlineto
            hintmask 10111110
            -105 -11 -98 -90 -161 hhcurveto
            -124 -68 54 138 221 116 135 199 hvcurveto
            hintmask 10111101
            110 71 -41 -91 -10 -1 -11 -2 -12 hvcurveto
            97 hlineto
            3 17 1 16 15 vvcurveto
            133 -116 65 -169 -256 -152 -176 -270 -169 98 -95 187 vhcurveto
            hintmask 10111110
            101 85 28 68 66 hvcurveto
            endchar
          </CharString>
          <CharString index="14">
            23 6 13 8 15 50 37 -31 56 hhcurveto
            60 34 48 56 10 hvcurveto
            return
          </CharString>
          <CharString index="15">
            rmoveto
            -93 hlineto
            -119 -22 -93 -58 -128 hhcurveto
            -124 -63 55 134 216 108 143 196 100 60 -45 -92 -12 -2 -15 -2 -15 hvcurveto
            97 hlineto
            3 20 2 19 18 vvcurveto
            136 -106 67 -158 -249 -147 -180 -268 -176 98 -86 193 167 133 81 177 30 vhcurveto
            endchar
          </CharString>
          <CharString index="16">
            rmoveto
            -99 callgsubr
            hintmask 01111100
            -84 callsubr
            hintmask 10111100
            -98 callsubr
            endchar
          </CharString>
          <CharString index="17">
            95 hlineto
            50 283 rlineto
            256 hlineto
            99 -283 rlineto
            102 hlineto
            -105 295 rlineto
            96 29 68 83 106 vvcurveto
            104 -63 69 -130 vhcurveto
            -347 hlineto
            296 -320 rmoveto
            -257 hlineto
            41 237 rlineto
            257 hlineto
            70 35 -35 -60 -89 -66 -53 -80 hvcurveto
            return
          </CharString>
          <CharString index="18">
            rmoveto
            -85 hlineto
            -67 -13 -43 -67 -89 hhcurveto
            -70 -38 37 100 110 34 157 139 81 18 -48 -57 -10 0 -9 -1 -10 hvcurveto
            90 hlineto
            1 12 1 13 12 vvcurveto
            98 -50 72 -143 -193 -69 -179 -166 -139 61 -66 142 139 70 95 112 18 vhcurveto
            endchar
          </CharString>
          <CharString index="19">
            -17 -43 -33 -26 -48 -13 rrcurveto
            39 -50 -70 22 -86 hhcurveto
            -220 -139 -122 -225 -39 hvcurveto
            -6 -31 -3 -32 -33 vvcurveto
            -168 110 -99 187 219 139 122 227 39 vhcurveto
            6 31 3 32 33 vvcurveto
            64 -17 55 -31 42 vhcurveto
            return
          </CharString>
          <CharString index="20">
            -95 callgsubr
            -210 -70 callgsubr
            hintmask 01111110
            -84 callsubr
            hintmask 10111110
            -98 callsubr
            endchar
          </CharString>
          <CharString index="21">
            rmoveto
            75 hlineto
            -63 132 rlineto
            -96 hlineto
            -1 -3 rlineto
            return
          </CharString>
          <CharString index="22">
            -20 298 rlineto
            -108 hlineto
            -122 -298 rlineto
            -9 -23 -37 -101 0 vvcurveto
            -5 hlineto
            0 -7 96 -3 28 vhcurveto
            -28 298 rlineto
            -89 hlineto
            65 -526 rlineto
            97 hlineto
            130 314 rlineto
            12 29 31 79 0 vvcurveto
            4 hlineto
            0 2 -78 2 -30 vhcurveto
            endchar
          </CharString>
          <CharString index="23">
            -71 64 vlineto
            -76 callsubr
            -53 -301 rlineto
            return
          </CharString>
          <CharString index="24">
            -92 -16 -47 -33 -71 hhcurveto
            -49 -26 27 52 9 2 23 7 28 hvcurveto
            -95 hlineto
            -8 -33 -1 -25 -15 vvcurveto
            -97 61 -50 115 120 77 60 151 27 vhcurveto
            86 487 rlineto
            endchar
          </CharString>
          <CharString index="25">
            565 -64 callgsubr
            -417 hlineto
            505 554 9 49 rlineto
            -531 hlineto
            -15 -83 rlineto
            381 hlineto
            -503 -554 rlineto
            return
          </CharString>
          <CharString index="26">
            -39 callgsubr
            -89 hlineto
            -92 -522 -4 -1 -295 523 rlineto
            -85 8 callgsubr
            89 hlineto
            return
          </CharString>
          <CharString index="27">
            rmoveto
            10 58 rlineto
            -49 hlineto
            -23 -10 11 23 2 0 6 1 5 hvcurveto
            61 345 rlineto
            89 hlineto
            13 73 rlineto
            -89 hlineto
            34 146 rlineto
            -96 hlineto
            -26 -146 rlineto
            -64 hlineto
            -13 -73 rlineto
            64 hlineto
            -62 -353 rlineto
            -1 -8 -1 -8 -12 vvcurveto
            -45 23 -38 71 21 30 6 8 17 vhcurveto
            return
          </CharString>
          <CharString index="28">
            rmoveto
            -75 callgsubr
            hintmask 10111100
            -60 callsubr
            hintmask 11011100
            -81 callgsubr
            endchar
          </CharString>
          <CharString index="29">
            88 hlineto
            61 349 rlineto
            4 23 3 24 18 vvcurveto
            90 -60 34 -97 return
          </CharString>
          <CharString index="30">
            rmoveto
            30 hlineto
            32 29 -9 -31 -46 -36 -19 -41 -36 -20 15 28 4 0 8 4 15 hvcurveto
            -63 hlineto
            -4 -14 -1 -16 -8 vvcurveto
            -54 43 -33 80 74 65 47 73 34 -16 23 -28 15 vhcurveto
            return
          </CharString>
          <CharString index="31">
            93 526 -69 callgsubr
            return
          </CharString>
          <CharString index="32">
            38 18 27 27 48 vvcurveto
            55 -45 30 -70 -66 -55 -40 -62 -10 vhcurveto
            -3 -19 rlineto
            63 hlineto
            2 14 rlineto
            36 5 31 16 33 hhcurveto
            28 23 -11 -29 -40 -36 -19 -35 hvcurveto
            return
          </CharString>
          <CharString index="33">
            274 hlineto
            232 160 152 262 188 -115 84 -196 hvcurveto
            -234 hlineto
            return
          </CharString>
          <CharString index="34">
            rmoveto
            305 hlineto
            13 72 rlineto
            -305 hlineto
            return
          </CharString>
          <CharString index="35">
            93 hlineto
            4 20 1 17 12 vvcurveto
            110 -108 46 -144 -143 -139 -63 -135 vhcurveto
            return
          </CharString>
          <CharString index="36">
            -16 21 -21 183 83 338 82 return
          </CharString>
          <CharString index="37">
            rmoveto
            -5 callsubr
            106 19 69 38 67 hhcurveto
            37 hlineto
            hintmask 10011100
            15 85 rlineto
            hintmask 11001100
            0 -18 8 -28 -72 -43 -47 -44 -25 vhcurveto
            -6 hlineto
            hintmask 10101100
            4 79 rlineto
            -67 hlineto
            endchar
          </CharString>
          <CharString index="38">
            rmoveto
            -65 hlineto
            hintmask 11101000
            -98 callgsubr
            hintmask 11011000
            -93 callsubr
            return
          </CharString>
          <CharString index="39">
            773 -95 callgsubr
            return
          </CharString>
          <CharString index="40">
            rmoveto
            74 hlineto
            50 63 rlineto
            -17 34 44 -9 54 hhcurveto
            205 71 178 173 58 -14 45 -27 32 hvcurveto
            80 101 rlineto
            -74 hlineto
            -51 -64 rlineto
            18 -35 -44 9 -54 hhcurveto
            -205 -71 -179 -174 -58 14 -45 28 -32 hvcurveto
            50 143 rmoveto
            126 43 146 138 35 28 -7 -13 20 vhcurveto
            -254 -319 rlineto
            -7 18 -3 22 27 vvcurveto
            130 -132 rmoveto
            -35 -27 5 13 -21 hvcurveto
            254 319 rlineto
            7 -18 3 -23 -26 vvcurveto
            -127 -44 -143 -137 vhcurveto
            endchar
          </CharString>
          <CharString index="41">
            rmoveto
            -75 -36 35 96 151 58 122 114 82 33 -44 -80 -140 -57 -140 -119 hvcurveto
            return
          </CharString>
          <CharString index="42">
            -12 -60 callgsubr
            return
          </CharString>
          <CharString index="43">
            -16 0 -54 callgsubr
            return
          </CharString>
          <CharString index="44">
            rmoveto
            86 hlineto
            return
          </CharString>
          <CharString index="45">
            -131 79 -77 135 return
          </CharString>
          <CharString index="46">
            -74 callsubr
            148 -603 -74 callgsubr
            return
          </CharString>
          <CharString index="47">
            71 -64 vlineto
            -93 -526 44 callsubr
            return
          </CharString>
          <CharString index="48">
            88 hlineto
            -76 callsubr
            return
          </CharString>
          <CharString index="49">
            rmoveto
            -190 -33 -99 -91 -169 hhcurveto
            -125 -74 69 116 29 2 27 5 26 hvcurveto
            return
          </CharString>
          <CharString index="50">
            39 0 83 241 63 216 -1 callgsubr
            -53 -299 rlineto
            -74 hlineto
            -11 -63 rlineto
            74 hlineto
            212 -241 rmoveto
            -159 hlineto
            42 241 rlineto
            173 hlineto
            11 63 rlineto
            -173 hlineto
            38 216 rlineto
            159 hlineto
            129 79 -54 -147 -207 -123 -112 -176 hvcurveto
            endchar
          </CharString>
          <CharString index="51">
            rmoveto
            -61 callgsubr
            return
          </CharString>
          <CharString index="52">
            rmoveto
            75 hlineto
            68 129 -1 3 rlineto
            -96 hlineto
            return
          </CharString>
          <CharString index="53">
            98 113 rlineto
            -84 hlineto
            -66 -76 rlineto
            26 -47 -61 13 -72 hhcurveto
            -240 -163 -177 -273 -81 23 -61 44 -43 hvcurveto
            32 195 rmoveto
            223 125 136 185 46 39 -8 -17 31 vhcurveto
            -395 -456 rlineto
            -21 29 -10 40 53 vvcurveto
            193 -189 rmoveto
            -46 -38 7 17 -31 hvcurveto
            395 456 rlineto
            21 -30 11 -40 -53 vvcurveto
            -223 -128 -134 -184 vhcurveto
            endchar
          </CharString>
          <CharString index="54">
            -22 -7 -29 -31 -63 hhcurveto
            return
          </CharString>
          <CharString index="55">
            477 -85 callgsubr
            return
          </CharString>
          <CharString index="56">
            -82 callgsubr
            endchar
          </CharString>
          <CharString index="57">
            39 -37 callsubr
            return
          </CharString>
          <CharString index="58">
            95 -11 82 547 81 return
          </CharString>
          <CharString index="59">
            46 66 161 38 119 vvcurveto
            60 -44 25 -61 -74 -68 -40 -97 -5 vhcurveto
            62 hlineto
            5 25 rlineto
            30 6 19 26 48 hhcurveto
            37 10 -19 -18 -82 -204 -48 -24 -117 hvcurveto
            return
          </CharString>
          <CharString index="60">
            rlineto
            -6 hlineto
            46 -27 -47 26 -76 hhcurveto
            -142 -110 -133 -209 return
          </CharString>
          <CharString index="61">
            49 vstem
            368 -12 rmoveto
            196 159 159 196 196 -159 159 -196 -196 -159 -159 -196 -196 159 -159 196 hvcurveto
            47 vmoveto
            -169 -137 138 170 170 137 138 169 169 137 -138 -170 -170 -137 -138 -169 hvcurveto
            return
          </CharString>
          <CharString index="62">
            hstemhm
            21 92 248 79 return
          </CharString>
          <CharString index="63">
            7 callsubr
            hstem
            581 98 vstem
            18 hmoveto
            -90 callsubr
            return
          </CharString>
          <CharString index="64">
            -71 64 vlineto
            86 489 77 30 45 62 13 88 rlinecurve
            9 54 rlineto
            return
          </CharString>
          <CharString index="65">
            hstem
            37 98 507 98 vstem
            return
          </CharString>
          <CharString index="66">
            -93 callsubr
            -155 -295 -104 callgsubr
            return
          </CharString>
          <CharString index="67">
            51 hlineto
            26 9 -6 -12 -24 -19 -6 -26 hvcurveto
            -100 hlineto
            return
          </CharString>
          <CharString index="68">
            12 0 12 3 14 return
          </CharString>
          <CharString index="69">
            53 302 rlineto
            -30 hlineto
            -37 -19 -57 -14 -34 -4 -7 -40 rcurveline
            88 hlineto
            -39 -225 -69 callgsubr
            return
          </CharString>
          <CharString index="70">
            -12 -20 callsubr
            return
          </CharString>
          <CharString index="71">
            73 404 73 return
          </CharString>
          <CharString index="72">
            -197 -91 callsubr
          </CharString>
          <CharString index="73">
            rmoveto
            52 hlineto
            74 143 17 99 rlineto
            -100 hlineto
            -19 -108 rlineto
            40 hlineto
            return
          </CharString>
          <CharString index="74">
            rmoveto
            88 hlineto
            17 98 -69 callgsubr
            return
          </CharString>
          <CharString index="75">
            -12 -20 callgsubr
            return
          </CharString>
          <CharString index="76">
            -183 -182 65 -36 -21 700 -20 return
          </CharString>
          <CharString index="77">
            rmoveto
            110 97 63 128 20 hvcurveto
            -86 hlineto
            -85 -13 -63 -33 -67 hhcurveto
            -92 -43 45 95 -39 callsubr
            hvcurveto
            371 hlineto
            8 44 rlineto
            5 27 3 24 23 vvcurveto
            119 -72 62 -129 -79 -60 -25 -42 -44 vhcurveto
            43 -27 -55 24 -84 hhcurveto
            return
          </CharString>
          <CharString index="78">
            686 rlineto
            return
          </CharString>
          <CharString index="79">
            38 22 21 35 34 vvcurveto
            50 -35 38 -76 -78 -52 -51 -62 -26 12 -24 21 -16 vhcurveto
            return
          </CharString>
          <CharString index="80">
            95 -12 81 -48 -21 274 83 260 81 return
          </CharString>
          <CharString index="81">
            64 -28.5 62.5 99 65 -43 64 return
          </CharString>
          <CharString index="82">
            28 callgsubr
            217 -20 hstem
            13 513 vstem
            346 hmoveto
            97 hlineto
            -135 319 218 207 rlineto
            -109 hlineto
            -268 -253 79 450 66 callgsubr
            29 165 116 94 rlineto
            return
          </CharString>
          <CharString index="83">
            21 90 311 89 return
          </CharString>
          <CharString index="84">
            -21 309 83 294 -20 hstem
            18 685 vstem
            487 hmoveto
            -10 callgsubr
            return
          </CharString>
          <CharString index="85">
            hstemhm
            1 90 -32 94 189 95 -60 90 return
          </CharString>
          <CharString index="86">
            -15 -9 -7 -23 return
          </CharString>
          <CharString index="87">
            81 617 -20 return
          </CharString>
          <CharString index="88">
            61 112 15 84 rlineto
            -85 hlineto
            -16 -91 rlineto
            return
          </CharString>
          <CharString index="89">
            vstem
            -52 callsubr
            return
          </CharString>
          <CharString index="90">
            hintmask 11100100
            13 hmoveto
            -5 callsubr
            106 19 69 38 67 hhcurveto
            37 hlineto
            hintmask 11001100
            15 85 rlineto
            hintmask 11100100
            0 -18 8 -28 -72 -43 -47 -44 -25 vhcurveto
            -6 hlineto
            hintmask 11010100
            4 79 rlineto
            -67 hlineto
            return
          </CharString>
          <CharString index="91">
            409 868 -100 callsubr
            return
          </CharString>
          <CharString index="92">
            -182 72 118 73 445 -20 return
          </CharString>
          <CharString index="93">
            652 rmoveto
            -11 -61 rlineto
            hintmask 11111110
            -10 callsubr
            return
          </CharString>
          <CharString index="94">
            628 -102 callgsubr
            return
          </CharString>
          <CharString index="95">
            rlineto
            76 14 43 34 79 hhcurveto
            59 30 -28 -60 -9 -2 -18 -3 -19 hvcurveto
            88 hlineto
            2 13 rlineto
            3 20 1 17 17 vvcurveto
            102 -69 38 -111 -122 -77 -53 -146 -26 vhcurveto
            return
          </CharString>
          <CharString index="96">
            -51 -21 -19 -40 -41 vvcurveto
            -51 34 -38 84 88 52 54 66 vhcurveto
            return
          </CharString>
          <CharString index="97">
            -104 callsubr
            -21 callsubr
            hvcurveto
            return
          </CharString>
          <CharString index="98">
            -1 -227 -104 callgsubr
            return
          </CharString>
          <CharString index="99">
            rmoveto
            100 9 callgsubr
            -40 hlineto
            64 134 rlineto
            -52 hlineto
            -73 -143 rlineto
            return
          </CharString>
          <CharString index="100">
            vvcurveto
            -56 46 -18 42 20 21 5 9 23 vhcurveto
            return
          </CharString>
          <CharString index="101">
            -405 2 callsubr
            return
          </CharString>
          <CharString index="102">
            88 hlineto
            53 301 rlineto
            return
          </CharString>
          <CharString index="103">
            10 56 rlineto
            -45 hlineto
            31 176 rlineto
            -41 hlineto
            -14 -36 -10 -21 -12 -23 -17 -96 rcurveline
            -95 hlineto
            33 43 62 97 34 86 rrcurveto
            -70 hlineto
            return
          </CharString>
          <CharString index="104">
            -125 -107 -58 -110 hvcurveto
            85 hlineto
            2 12 rlineto
            40 8 32 43 94 hhcurveto
            82 25 -28 -42 -8 -1 -8 -1 -9 hvcurveto
            -10 -58 rlineto
            return
          </CharString>
          <CharString index="105">
            -30 callgsubr
            189 -141 rmoveto
            -67 hlineto
            return
          </CharString>
          <CharString index="106">
            -64 callsubr
            47 135 return
          </CharString>
          <CharString index="107">
            -65 hlineto
            hintmask 11010110
            -98 callgsubr
            hintmask 11001110
            23 6 13 8 15 return
          </CharString>
          <CharString index="108">
            404 736 -97 callgsubr
            return
          </CharString>
          <CharString index="109">
            21 40 callsubr
            return
          </CharString>
          <CharString index="110">
            rmoveto
            472 -64 callgsubr
            -472 hlineto
            endchar
          </CharString>
          <CharString index="111">
            -723 rmoveto
            -75 callgsubr
            return
          </CharString>
          <CharString index="112">
            -93 200 164 200 rlineto
            -79 hlineto
            -184 -200 rlineto
            return
          </CharString>
          <CharString index="113">
            21 -21 686 54 callsubr
            return
          </CharString>
          <CharString index="114">
            -21 283 83 237 83 return
          </CharString>
          <CharString index="115">
            93 531 5 1 rlineto
            return
          </CharString>
          <CharString index="116">
            vstem
            123 625 -33 callsubr
            -127 31 callgsubr
            return
          </CharString>
          <CharString index="117">
            rmoveto
            75 36 -35 -96 -151 -58 -122 -114 -82 -33 44 80 140 57 140 119 hvcurveto
            endchar
          </CharString>
          <CharString index="118">
            200 -18 17 93 -206 -17 49 197 -69 callgsubr
            -21 -197 -199 17 -17 -93 205 18 return
          </CharString>
          <CharString index="119">
            hstemhm
            382 79 -64.5 79.5 return
          </CharString>
          <CharString index="120">
            -12 81 548 81 return
          </CharString>
          <CharString index="121">
            rmoveto
            130 46 113 109 95 -48 44 -92 -130 -46 -113 -111 -93 48 -44 92 hvcurveto
            return
          </CharString>
          <CharString index="122">
            vstem
            -16 callsubr
            return
          </CharString>
          <CharString index="123">
            hstemhm
            -41 callgsubr
            return
          </CharString>
          <CharString index="124">
            rmoveto
            -63 132 rlineto
            -96 hlineto
            -1 -3 85 -129 rlineto
            return
          </CharString>
          <CharString index="125">
            hstem
            531.5 83 vstem
            return
          </CharString>
          <CharString index="126">
            21 -4 callgsubr
            return
          </CharString>
          <CharString index="127">
            -64 -68 -34 -49 -40 return
          </CharString>
          <CharString index="128">
            rmoveto
            509 196 19 107 -439 197 -15 -87 365 -160 -422 -160 rlineto
            return
          </CharString>
          <CharString index="129">
            rmoveto
            -291 hlineto
            98 24 59 55 92 hhcurveto
            72 48 -32 -82 -12 0 -13 -4 -14 hvcurveto
            endchar
          </CharString>
          <CharString index="130">
            35 callsubr
            -95 132 16 callsubr
            hintmask 00000000
            hintmask 11011100
            return
          </CharString>
          <CharString index="131">
            127 -53 8 42 -129 197 rlineto
            -21 hlineto
            -195 -189 -10 -50 147 53 return
          </CharString>
          <CharString index="132">
            rmoveto
            79 hlineto
            131 129 -1 3 rlineto
            -100 hlineto
            return
          </CharString>
          <CharString index="133">
            56 225 40 37 -20 32 -20 hstemhm
            return
          </CharString>
          <CharString index="134">
            39 21 7 callsubr
            return
          </CharString>
          <CharString index="135">
            73 -42 73 hstemhm
            return
          </CharString>
          <CharString index="136">
            -17 -31 hhcurveto
            -44 hlineto
            -10 -57 rlineto
            -6 16 27 -6 24 hhcurveto
            95 24 61 60 11 hvcurveto
            return
          </CharString>
          <CharString index="137">
            31 40 callgsubr
            return
          </CharString>
          <CharString index="138">
            64.5 122.5 65 return
          </CharString>
          <CharString index="139">
            hstemhm
            45 98 -57 97 hintmask 11111000
            return
          </CharString>
          <CharString index="140">
            -12 -36 callsubr
            return
          </CharString>
          <CharString index="141">
            -86 hlineto
            -85 -14 -64 -33 -70 hhcurveto
            -95 -45 45 95 -39 callsubr
            hvcurveto
            return
          </CharString>
          <CharString index="142">
            -32 callsubr
            40 108 return
          </CharString>
          <CharString index="143">
            hstem
            60 95 vstem
            return
          </CharString>
          <CharString index="144">
            rlineto
            249 hlineto
            139 106 101 142 108 -62 72 -128 hvcurveto
            return
          </CharString>
          <CharString index="145">
            rmoveto
            81 hlineto
            82 167 rlineto
            4 -104 vlineto
            return
          </CharString>
          <CharString index="146">
            -64 callsubr
            50 return
          </CharString>
          <CharString index="147">
            -21 686 -20 return
          </CharString>
          <CharString index="148">
            -49 callsubr
            34 135 return
          </CharString>
          <CharString index="149">
            -21 465 73 185 -20 return
          </CharString>
          <CharString index="150">
            -183 0 73 380 73 return
          </CharString>
          <CharString index="151">
            rlineto
            -5 callsubr
            return
          </CharString>
          <CharString index="152">
            hstem
            21 92 272 91 vstem
            return
          </CharString>
          <CharString index="153">
            -16 2 callsubr
            return
          </CharString>
          <CharString index="154">
            hstem
            586 98 vstem
            return
          </CharString>
          <CharString index="155">
            -72 0 83 520 83 50 132 hstem
            -37 677 vstem
            return
          </CharString>
          <CharString index="156">
            rmoveto
            185 338 rlineto
            5 hlineto
            66 -338 rlineto
            endchar
          </CharString>
          <CharString index="157">
            64 -64 117 return
          </CharString>
          <CharString index="158">
            hstemhm
            21 92 115 46 87 79 -63 46 hintmask 0000000000000000
            return
          </CharString>
          <CharString index="159">
            108 -51 callgsubr
            return
          </CharString>
          <CharString index="160">
            100 hlineto
            20 108 rlineto
            -100 hlineto
            return
          </CharString>
          <CharString index="161">
            -20 70 132 hstem
            return
          </CharString>
          <CharString index="162">
            151 0 138 -129 -21 94 56 190 return
          </CharString>
          <CharString index="163">
            74 24 -31 -36 -5 0 -4 -1 -5 hvcurveto
            endchar
          </CharString>
          <CharString index="164" raw="1">
            fc29a076 0b  
          </CharString>
          <CharString index="165">
            hstemhm
            -5 94 -24 86 214 92 301 89 return
          </CharString>
          <CharString index="166">
            67 callsubr
            22 88 232 74 11 88 return
          </CharString>
          <CharString index="167">
            -69 callgsubr
            -127 -723 return
          </CharString>
          <CharString index="168">
            -461 21 -21 723 -20 return
          </CharString>
          <CharString index="169">
            9 51 rlineto
            -32 hlineto
            -33 -11 return
          </CharString>
          <CharString index="170">
            686 -17 callgsubr
            return
          </CharString>
          <CharString index="171">
            rlineto
            -31 -5 -19 -17 return
          </CharString>
          <CharString index="172">
            73 44 -60 71 hhcurveto
            92 58 72 0 hvcurveto
            return
          </CharString>
          <CharString index="173">
            82 463 rlineto
            return
          </CharString>
          <CharString index="174">
            61 36 47 hstemhm
            return
          </CharString>
        <CharString name=".notdef">
          -182 0 50 600 50 hstem
          0 50 400 50 vstem
          0 vmoveto
          500 700 -500 hlineto
          420 -50 rmoveto
          -170 -255 -170 255 rlineto
          140 -300 rmoveto
          -170 -255 rlineto
          510 vlineto
          400 hmoveto
          -510 vlineto
          -170 255 rlineto
          -30 -45 rmoveto
          170 -255 rlineto
          -340 hlineto
          endchar
        </CharString>
        <CharString name="A">
          -71 callsubr
          hstem
          -41 654 vstem
          477 183 -101 callgsubr
        </CharString>
        <CharString name="AE">
          317 0 83 100 83 43 23 callgsubr
          hstem
          -61 1061 vstem
          513 hmoveto
          -40 callgsubr
        </CharString>
        <CharString name="AEacute">
          317 0 83 100 83 43 23 callgsubr
          50 132 hstem
          -61 1061 vstem
          543 736 -97 callgsubr
          -138 -868 rmoveto
          -40 callgsubr
        </CharString>
        <CharString name="Aacute">
          39 callgsubr
          132 hstem
          -41 654 vstem
          377 736 -97 callgsubr
          -8 -51 callsubr
        </CharString>
        <CharString name="Abreve">
          6 callgsubr
          hstem
          -41 654 vstem
          580 868 -93 callgsubr
          endchar
        </CharString>
        <CharString name="Acircumflex">
          26 callgsubr
          hstem
          -41 654 -18 callsubr
          43 -629 -101 callgsubr
        </CharString>
        <CharString name="Adieresis">
          -71 callsubr
          87 95 hstem
          -41 654 vstem
          290 -68 callsubr
          -17 -51 callsubr
        </CharString>
        <CharString name="Agrave">
          39 callgsubr
          132 hstem
          -41 654 vstem
          383 736 -86 callsubr
          179 -682 -101 callgsubr
        </CharString>
        <CharString name="Amacron">
          -71 callsubr
          77 72 hstem
          -41 654 vstem
          257 763 -73 callsubr
          207 -652 -101 callgsubr
        </CharString>
        <CharString name="Aogonek">
          -16 -182 65 138 -21 183 83 338 82 hstem
          438 85 vstem
          583 36 callgsubr
          -27 -10 19 22 31 32 27 33 18 hvcurveto
          25 hlineto
          -96 callsubr
          318 hlineto
          -23 callgsubr
          -41 -24 -34 -35 -49 vvcurveto
          -56 39 -18 34 22 24 3 11 26 vhcurveto
          -379 434 49 callsubr
        </CharString>
        <CharString name="Aring">
          -71 callsubr
          25 45 102 45 hstemhm
          332 60 callgsubr
          527 823 -79 callgsubr
          -4 -633 rmoveto
          -23 callgsubr
          100 hlineto
          hintmask 11101110
          -96 callsubr
          45 83 49 callsubr
        </CharString>
        <CharString name="Aringacute">
          -16 21 -21 183 83 426 -20 122 45 22 132 hstemhm
          318 60 callgsubr
          396 861 -97 callgsubr
          -545 -993 rmoveto
          100 hlineto
          100 183 rlineto
          318 hlineto
          -23 callgsubr
          100 hlineto
          -141 668 rlineto
          hintmask 11110110
          27 19 14 33 39 vvcurveto
          45 -35 35 -49 -71 -40 -48 -65 -21 7 -19 13 -13 vhcurveto
          70 19 rmoveto
          -29 -15 18 23 32 21 29 38 28 16 -19 -23 -32 -21 -28 -38 hvcurveto
          -204 -426 49 callsubr
        </CharString>
        <CharString name="Atilde">
          -71 callsubr
          78 28 callsubr
          -41 654 hintmask 11101100
          607 868 rmoveto
          -65 hlineto
          hintmask 11110100
          -98 callgsubr
          hintmask 11101100
          -93 callsubr
          -130 -51 callsubr
        </CharString>
        <CharString name="B">
          -16 0 83 227 83 210 83 hstemhm
          499 96 -57 94 hintmask 11110000
          18 hmoveto
          351 hlineto
          118 108 60 153 81 -44 45 -62 17 hvcurveto
          4 vlineto
          hintmask 11101000
          77 22 66 68 90 vvcurveto
          97 -75 49 -119 vhcurveto
          -299 hlineto
          80 -83 rmoveto
          220 hlineto
          61 38 -23 -64 -71 -58 -52 -84 hvcurveto
          -214 hlineto
          -14 -83 rmoveto
          227 hlineto
          hintmask 11110000
          68 36 -31 -64 -102 -63 -30 -74 hvcurveto
          -234 hlineto
          endchar
        </CharString>
        <CharString name="C">
          39 13 callsubr
          63 callgsubr
          658 246 -92 callsubr
        </CharString>
        <CharString name="CR">
          -683 endchar
        </CharString>
        <CharString name="Cacute">
          39 13 callsubr
          38 132 63 callgsubr
          1 callsubr
          146 -622 -92 callsubr
        </CharString>
        <CharString name="Cacute.loclPLK">
          39 13 callsubr
          38 132 63 callgsubr
          398 736 -55 callsubr
          214 -622 -92 callsubr
        </CharString>
        <CharString name="Ccaron">
          39 13 callsubr
          35 135 hstem
          37 98 464 98 15 callsubr
          204 -543 -92 callsubr
        </CharString>
        <CharString name="Ccedilla">
          39 42 callgsubr
          26 79 548 81 hstemhm
          37 98 210 73 181 98 hintmask 00000000
          hintmask 10111111
          259 -77 rmoveto
          -40 callsubr
          hintmask 01011111
          -9 -49 rlineto
          hintmask 10111111
          -47 callgsubr
          8 24 159 5 126 82 29 171 rlinecurve
          -93 hlineto
          hintmask 10011111
          -119 -22 -93 -58 -128 hhcurveto
          -124 -63 55 134 216 108 143 196 100 60 -45 -92 -12 -2 -15 -2 -15 hvcurveto
          97 hlineto
          3 20 2 19 18 vvcurveto
          136 -106 67 -158 -249 -147 -180 -268 -162 83 -86 163 -12 vhcurveto
          endchar
        </CharString>
        <CharString name="Ccircumflex">
          39 13 callsubr
          35 135 63 callgsubr
          504 -85 callgsubr
          197 -566 -92 callsubr
        </CharString>
        <CharString name="Cdotaccent">
          39 13 callsubr
          75 95 63 callgsubr
          410 -12 callgsubr
          231 -622 -92 callsubr
        </CharString>
        <CharString name="D">
          39 0 83 520 83 hstem
          586 98 vstem
          18 hmoveto
          -61 callsubr
          endchar
        </CharString>
        <CharString name="Dcaron">
          39 0 83 520 83 47 135 47 callsubr
          399 868 -100 callsubr
          -426 -789 rmoveto
          -61 callsubr
          endchar
        </CharString>
        <CharString name="Dcroat">
          -57 callsubr
        </CharString>
        <CharString name="Delta">
          -16 0 83 521 82 hstem
          -41 654 vstem
          -41 hmoveto
          654 hlineto
          -145 -29 callsubr
          -123 hlineto
          -241 -603 rmoveto
          285 521 rlineto
          5 hlineto
          102 -521 rlineto
          endchar
        </CharString>
        <CharString name="E">
          -64 callsubr
          55 callgsubr
          18 hmoveto
          -103 callsubr
          endchar
        </CharString>
        <CharString name="Eacute">
          39 callsubr
          132 55 callgsubr
          377 736 -97 callgsubr
          -467 -868 rmoveto
          -103 callsubr
          endchar
        </CharString>
        <CharString name="Ebreve">
          -64 callsubr
          65 64 55 callgsubr
          580 -73 callgsubr
          -562 -868 rmoveto
          -103 callsubr
          endchar
        </CharString>
        <CharString name="Ecaron">
          -1 callsubr
          55 callgsubr
          382 868 -100 callsubr
          -409 -789 rmoveto
          -103 callsubr
          endchar
        </CharString>
        <CharString name="Ecircumflex">
          -1 callsubr
          hstem
          18 649 -18 callsubr
          -416 -812 rmoveto
          -103 callsubr
          endchar
        </CharString>
        <CharString name="Edieresis">
          -64 callsubr
          87 95 55 callgsubr
          290 -68 callsubr
          -476 -868 rmoveto
          -103 callsubr
          endchar
        </CharString>
        <CharString name="Edotaccent">
          -64 callsubr
          87 95 55 callgsubr
          383 -12 callgsubr
          -382 -868 rmoveto
          -103 callsubr
          endchar
        </CharString>
        <CharString name="Egrave">
          39 callsubr
          132 55 callgsubr
          383 736 -86 callsubr
          -280 -865 rmoveto
          -103 callsubr
          endchar
        </CharString>
        <CharString name="Emacron">
          -64 callsubr
          77 72 55 callgsubr
          268 763 -73 callsubr
          -263 -835 rmoveto
          -103 callsubr
          endchar
        </CharString>
        <CharString name="Eng">
          39 -182 69 134 13 callgsubr
          18 686 hintmask 11011000
          385 -113 rmoveto
          -10 -57 rlineto
          -6 16 27 -6 24 hhcurveto
          95 24 61 60 11 hvcurveto
          132 747 rlineto
          -89 hlineto
          -92 -522 -4 -1 -295 523 rlineto
          -85 8 callgsubr
          89 hlineto
          hintmask 11101000
          93 531 5 1 291 -522 -13 -75 rlineto
          -31 -5 -18 -17 -31 hhcurveto
          endchar
        </CharString>
        <CharString name="Eogonek">
          -16 -182 65 117 -54 callgsubr
          hstem
          371 84 vstem
          523 36 callgsubr
          -30 -15 16 19 35 47 30 50 17 hvcurveto
          15 83 rlineto
          -439 hlineto
          40 226 rlineto
          389 hlineto
          14 83 rlineto
          -389 hlineto
          37 211 rlineto
          433 -64 callgsubr
          -528 8 callgsubr
          433 hlineto
          -51 -25 -29 -31 -52 vvcurveto
          -56 47 -18 41 20 21 5 9 23 vhcurveto
          endchar
        </CharString>
        <CharString name="Eth">
          -57 callsubr
        </CharString>
        <CharString name="Euro">
          -12 73 182 65 70 65 182 73 -10 -20 hstemhm
          1 580 hintmask 11110100
          12 308 rmoveto
          -11 -65 rlineto
          77 hlineto
          -185 5 133 -70 160 hhcurveto
          28 28 4 6 28 hvcurveto
          12 71 rlineto
          -5 -26 -26 -3 -27 hhcurveto
          -98 -113 40 142 -8 hvcurveto
          258 hlineto
          11 65 rlineto
          -268 hlineto
          2 11 1 12 3 12 2 12 2 12 3 11 rrcurveto
          268 hlineto
          11 65 rlineto
          -257 hlineto
          140 56 134 42 102 hhcurveto
          24 22 -3 -5 21 hvcurveto
          hintmask 11101100
          12 71 rlineto
          hintmask 11110100
          7 -28 -31 3 -31 hhcurveto
          -156 -154 -74 -181 -68 hvcurveto
          -77 hlineto
          -11 -65 rlineto
          69 hlineto
          -3 -12 -2 -11 -2 -12 -6 -35 rcurveline
          endchar
        </CharString>
        <CharString name="F">
          -72 21 -21 302 83 218 83 hstem
          18 607 vstem
          166 302 rmoveto
          355 -64 callgsubr
          -355 hlineto
          38 218 rlineto
          391 -64 callgsubr
          -486 -5 callgsubr
          endchar
        </CharString>
        <CharString name="G">
          -27 callsubr
          -14 callgsubr
          hintmask 00000000
          hintmask 01111100
          574 hmoveto
          72 hlineto
          63 357 rlineto
          -337 hlineto
          -15 -83 rlineto
          242 hlineto
          -1 -10 rlineto
          hintmask 10111100
          -105 -11 -98 -90 -161 hhcurveto
          -124 -68 54 138 221 116 135 199 hvcurveto
          hintmask 10111010
          110 71 -41 -91 -10 -1 -11 -2 -12 hvcurveto
          97 hlineto
          3 17 1 16 15 vvcurveto
          133 -116 65 -169 -256 -152 -176 -270 -169 98 -95 187 vhcurveto
          hintmask 10111100
          101 85 28 68 66 hvcurveto
          endchar
        </CharString>
        <CharString name="G_tilde.loclGUA">
          -27 callsubr
          66 73 -42 73 -14 callgsubr
          hintmask 1011011010000000
          662 868 rmoveto
          -65 hlineto
          hintmask 1011101010000000
          -98 callgsubr
          hintmask 1011011010000000
          -93 callsubr
          hintmask 0111011100000000
          -88 -868 rmoveto
          72 hlineto
          63 357 rlineto
          -337 hlineto
          -15 -83 rlineto
          242 hlineto
          -1 -10 rlineto
          hintmask 1011011100000000
          -105 -11 -98 -90 -161 hhcurveto
          -124 -68 54 138 221 116 135 199 hvcurveto
          hintmask 1011011010000000
          110 71 -41 -91 -10 -1 -11 -2 -12 hvcurveto
          97 hlineto
          3 17 1 16 15 vvcurveto
          133 -116 65 -169 -256 -152 -176 -270 -169 98 -95 187 vhcurveto
          hintmask 1011011100000000
          101 85 28 68 66 hvcurveto
          endchar
        </CharString>
        <CharString name="Gbreve">
          -27 callsubr
          53 64 -14 callgsubr
          hintmask 10111101
          635 -73 callgsubr
          hintmask 01111110
          -61 -868 -94 callsubr
        </CharString>
        <CharString name="Gcaron">
          -27 callsubr
          35 135 -14 callgsubr
          hintmask 10111101
          437 868 -100 callsubr
          hintmask 01111110
          92 -789 -94 callsubr
        </CharString>
        <CharString name="Gcircumflex">
          -27 callsubr
          35 135 -14 callgsubr
          hintmask 10111101
          532 -85 callgsubr
          hintmask 01111110
          85 -812 -94 callsubr
        </CharString>
        <CharString name="Gcommaaccent">
          95 -149 91 46 81 -48 -21 274 83 260 81 -14 callgsubr
          hintmask 00000000
          hintmask 10111110
          574 hmoveto
          72 hlineto
          63 357 rlineto
          -337 hlineto
          -15 -83 rlineto
          242 hlineto
          -1 -10 rlineto
          hintmask 11011110
          -105 -11 -98 -90 -161 hhcurveto
          -124 -68 54 138 221 116 135 199 hvcurveto
          hintmask 11011101
          110 71 -41 -91 -10 -1 -11 -2 -12 hvcurveto
          97 hlineto
          3 17 1 16 15 vvcurveto
          133 -116 65 -169 -256 -152 -176 -270 -169 98 -95 187 vhcurveto
          hintmask 11011110
          101 85 28 68 66 hvcurveto
          -317 -314 -78 callgsubr
        </CharString>
        <CharString name="Gdotaccent">
          -27 callsubr
          75 95 -14 callgsubr
          hintmask 10111101
          438 -12 callgsubr
          hintmask 01111110
          119 -868 -94 callsubr
        </CharString>
        <CharString name="H">
          39 21 -23 callsubr
          endchar
        </CharString>
        <CharString name="Hbar">
          39 21 -21 309 83 134 72 -72 160 hstemhm
          18 739 hintmask 11011000
          487 hmoveto
          95 hlineto
          93 526 rlineto
          70 hlineto
          hintmask 11101000
          12 72 rlineto
          -70 51 callgsubr
          -374 51 callgsubr
          -70 hlineto
          hintmask 11011000
          -12 -72 rlineto
          70 hlineto
          -93 -526 rlineto
          95 hlineto
          55 309 rlineto
          374 hlineto
          38 217 rmoveto
          -24 -134 rlineto
          -374 hlineto
          24 134 rlineto
          endchar
        </CharString>
        <CharString name="Hcircumflex">
          39 21 -21 309 83 294 -20 67 135 hstem
          18 685 vstem
          504 -85 callgsubr
          26 -812 rmoveto
          -10 callgsubr
          endchar
        </CharString>
        <CharString name="I">
          -6 callsubr
          hstem
          31 216 vstem
          30 callsubr
          endchar
        </CharString>
        <CharString name="IJ">
          95 -12 81 -48 40 callsubr
          hstemhm
          275 95 hintmask 00000000
          hintmask 01110000
          30 callsubr
          514 hmoveto
          -87 -492 rlineto
          hintmask 10110000
          -83 callsubr
        </CharString>
        <CharString name="Iacute">
          -405 6 callsubr
          31 344 vstem
          165 736 -97 callgsubr
          -242 -868 rmoveto
          -71 callgsubr
          endchar
        </CharString>
        <CharString name="Iacute_J.loclNLD">
          95 -12 81 -48 40 callsubr
          70 132 hstemhm
          275 95 hintmask 10111000
          165 736 -97 callgsubr
          406 -132 -97 callgsubr
          hintmask 01111000
          -756 -868 rmoveto
          -71 callgsubr
          514 hmoveto
          -87 -492 rlineto
          hintmask 10111000
          -83 callsubr
        </CharString>
        <CharString name="Ibreve">
          -6 callsubr
          85 64 hstem
          31 337 vstem
          368 -73 callgsubr
          -337 -868 rmoveto
          -71 callgsubr
          endchar
        </CharString>
        <CharString name="Icircumflex">
          -6 callsubr
          67 135 hstem
          31 320 vstem
          265 -85 callgsubr
          -191 -812 rmoveto
          -71 callgsubr
          endchar
        </CharString>
        <CharString name="Idieresis">
          -6 callsubr
          107 95 hstem
          31 338 vstem
          78 -68 callsubr
          -251 -868 rmoveto
          -71 callgsubr
          endchar
        </CharString>
        <CharString name="Idotaccent">
          -6 callsubr
          107 95 hstem
          31 244 vstem
          171 -12 callgsubr
          -157 -868 rmoveto
          -71 callgsubr
          endchar
        </CharString>
        <CharString name="Igrave">
          -405 6 callsubr
          31 216 vstem
          171 736 -86 callsubr
          -55 -865 rmoveto
          -71 callgsubr
          endchar
        </CharString>
        <CharString name="Imacron">
          -6 callsubr
          97 72 hstem
          31 334 vstem
          48 763 rmoveto
          304 hlineto
          13 72 rlineto
          -304 hlineto
          -30 -835 rmoveto
          -71 callgsubr
          endchar
        </CharString>
        <CharString name="Iogonek">
          -405 -182 65 803 -20 hstem
          -28 82 vstem
          121 46 callgsubr
          -24 hlineto
          -39 -13 20 23 24 15 32 57 18 hvcurveto
          121 686 rlineto
          -95 8 callgsubr
          -36 -20 -23 -36 -46 vvcurveto
          -61 39 -19 42 22 22 4 10 24 vhcurveto
          endchar
        </CharString>
        <CharString name="Itilde">
          -6 callsubr
          98 28 callsubr
          31 364 hintmask 11011000
          395 868 -69 callsubr
          -364 -868 rmoveto
          -71 callgsubr
          endchar
        </CharString>
        <CharString name="J">
          -183 -37 callsubr
          hstem
          -3 95 vstem
          388 686 rmoveto
          -87 -492 rlineto
          -83 callsubr
        </CharString>
        <CharString name="Jcircumflex">
          -183 -37 callsubr
          67 135 hstem
          -3 95 vstem
          501 -85 callgsubr
          -70 -126 rmoveto
          -87 -492 rlineto
          -83 callsubr
        </CharString>
        <CharString name="K">
          -16 21 -26 callgsubr
          endchar
        </CharString>
        <CharString name="Kcommaaccent">
          -16 -149 91 79 -26 callgsubr
          55 -425 -78 callgsubr
        </CharString>
        <CharString name="L">
          0 83 603 -20 hstem
          18 479 vstem
          -34 callgsubr
          endchar
        </CharString>
        <CharString name="Lacute">
          0 83 603 54 callsubr
          18 479 vstem
          152 736 -97 callgsubr
          -242 -868 rmoveto
          -25 callgsubr
          endchar
        </CharString>
        <CharString name="Lcaron">
          0 83 407 196 -91 91 hstemhm
          18 479 hintmask 10110000
          -34 callgsubr
          hintmask 11010000
          191 -196 rmoveto
          46 hlineto
          hintmask 10110000
          -19 callsubr
          32 hlineto
          endchar
        </CharString>
        <CharString name="Lcommaaccent">
          -149 91 58 83 603 -20 hstem
          18 479 vstem
          -34 callgsubr
          25 -916 -78 callgsubr
        </CharString>
        <CharString name="Ldot">
          0 83 335 108 160 -20 hstem
          18 479 vstem
          -34 callgsubr
          177 -268 -42 callgsubr
          endchar
        </CharString>
        <CharString name="Lslash">
          0 83 603 -20 hstem
          0 497 vstem
          35 hmoveto
          447 -64 callgsubr
          -352 hlineto
          43 244 186 111 15 82 -187 -111 49 277 -17 callgsubr
          -60 -340 -82 -49 -14 -81 82 49 rlineto
          endchar
        </CharString>
        <CharString name="M">
          150 0 115 -94 -21 581 105 hstemhm
          18 797 hintmask 01110000
          599 hmoveto
          95 -49 callgsubr
          -147 hlineto
          -248 -468 rlineto
          hintmask 10110000
          -19 -35 -25 -68 0 vvcurveto
          -4 hlineto
          0 -1 61 -8 42 vhcurveto
          -85 468 rlineto
          -139 8 callgsubr
          89 hlineto
          80 453 rlineto
          5 28 15 100 0 vvcurveto
          6 hlineto
          0 2 -44 4 -22 vhcurveto
          93 -515 rlineto
          80 hlineto
          276 515 rlineto
          14 26 14 40 0 vvcurveto
          7 hlineto
          -24 -128 rlineto
          endchar
        </CharString>
        <CharString name="N">
          39 21 13 callgsubr
          18 686 hintmask 10110000
          502 hmoveto
          81 hlineto
          -81 callsubr
          hintmask 11010000
          8 callsubr
          endchar
        </CharString>
        <CharString name="NULL">
          -683 endchar
        </CharString>
        <CharString name="Nacute">
          39 21 -53 callgsubr
          70 132 hstemhm
          18 686 hintmask 10111000
          1 callsubr
          -10 -868 rmoveto
          81 hlineto
          -81 callsubr
          hintmask 11011000
          8 callsubr
          endchar
        </CharString>
        <CharString name="Nacute.loclPLK">
          39 21 -53 callgsubr
          70 132 hstemhm
          18 686 hintmask 10111000
          398 736 -55 callsubr
          58 -868 rmoveto
          81 hlineto
          -81 callsubr
          hintmask 11011000
          8 callsubr
          endchar
        </CharString>
        <CharString name="Ncaron">
          39 21 -53 callgsubr
          67 135 hstemhm
          18 686 hintmask 10111000
          -16 callsubr
          48 -789 rmoveto
          81 hlineto
          -81 callsubr
          hintmask 11011000
          8 callsubr
          endchar
        </CharString>
        <CharString name="Ncommaaccent">
          39 -149 91 79 13 callgsubr
          18 686 hintmask 11011000
          502 hmoveto
          81 hlineto
          -81 callsubr
          hintmask 11101000
          8 callsubr
          24 -762 -78 callgsubr
        </CharString>
        <CharString name="Ntilde">
          39 21 -53 callgsubr
          98 28 callsubr
          18 686 hintmask 10101100
          634 868 rmoveto
          -65 hlineto
          hintmask 10110100
          -98 callgsubr
          hintmask 10101100
          -93 callsubr
          -132 -868 rmoveto
          81 hlineto
          -81 callsubr
          hintmask 11001100
          8 callsubr
          endchar
        </CharString>
        <CharString name="O">
          -49 callsubr
          -42 callsubr
          334 -11 -107 callgsubr
          endchar
        </CharString>
        <CharString name="OE">
          317 -12 81 -69 80 231 80 215 80 -69 81 hstemhm
          38 98 hintmask 01110100
          448 hmoveto
          438 hlineto
          14 80 rlineto
          -343 hlineto
          41 231 rlineto
          281 hlineto
          14 80 rlineto
          -281 hlineto
          38 215 rlineto
          336 hlineto
          14 80 rlineto
          -431 hlineto
          hintmask 10101100
          -13 -76 rlineto
          58 -37 -60 30 -84 hhcurveto
          -167 -119 -117 -238 -40 hvcurveto
          -7 -42 -4 -38 -34 vvcurveto
          -162 84 -79 148 75 64 29 59 52 vhcurveto
          -174 -7 rmoveto
          -98 -53 46 119 31 4 36 7 42 hvcurveto
          196 34 76 78 118 hhcurveto
          90 55 -42 -123 -31 -4 -36 -7 -42 hvcurveto
          -201 -36 -79 -73 -107 hhcurveto
          endchar
        </CharString>
        <CharString name="Oacute">
          -49 callsubr
          37 132 -42 callsubr
          402 736 -97 callgsubr
          -176 -879 -107 callgsubr
          endchar
        </CharString>
        <CharString name="Oacute.loclPLK">
          -49 callsubr
          37 132 -42 callsubr
          396 736 -55 callsubr
          -108 -879 -107 callgsubr
          endchar
        </CharString>
        <CharString name="Obreve">
          -49 callsubr
          52 64 -42 callsubr
          605 -73 callgsubr
          -271 -879 -107 callgsubr
          endchar
        </CharString>
        <CharString name="Ocircumflex">
          41 callsubr
          -42 callsubr
          502 -85 callgsubr
          -125 -823 -107 callgsubr
          endchar
        </CharString>
        <CharString name="Odieresis">
          -49 callsubr
          74 95 -42 callsubr
          315 -68 callsubr
          -185 -879 -107 callgsubr
          endchar
        </CharString>
        <CharString name="Ograve">
          -49 callsubr
          37 132 -42 callsubr
          408 736 -86 callsubr
          11 -876 -107 callgsubr
          endchar
        </CharString>
        <CharString name="Ohorn">
          -49 callsubr
          21 108 hstemhm
          37 98 507 98 hintmask 00000000
          hintmask 11111000
          723 828 -65 callgsubr
          hintmask 11011000
          -88 callsubr
          hintmask 11111000
          -76 callgsubr
          hintmask 11011000
          189 33 99 91 170 hhcurveto
          124 74 -68 -116 hvcurveto
          hintmask 11111000
          -29 -2 -27 -5 -26 vhcurveto
          endchar
        </CharString>
        <CharString name="Ohungarumlaut">
          -49 callsubr
          37 132 -42 callsubr
          334 736 -56 callgsubr
          -228 -879 -107 callgsubr
          endchar
        </CharString>
        <CharString name="Omacron">
          -49 callsubr
          64 72 -42 callsubr
          312 763 -73 callsubr
          9 -846 -107 callgsubr
          endchar
        </CharString>
        <CharString name="Omega">
          -72 callgsubr
        </CharString>
        <CharString name="Oslash">
          95 13 callsubr
          37 -20 hstem
          38 99 505 98 vstem
          8 -49 10 callgsubr
          -54 callsubr
        </CharString>
        <CharString name="Oslashacute">
          95 13 callsubr
          37 -20 22 132 hstemhm
          38 99 505 98 hintmask 00000000
          hintmask 11011100
          381 737 25 callsubr
          -482 -918 10 callgsubr
          hintmask 11101100
          -54 callsubr
        </CharString>
        <CharString name="Otilde">
          -49 callsubr
          65 28 callsubr
          37 98 507 98 hintmask 11011100
          632 868 rmoveto
          -65 hlineto
          hintmask 11101100
          -98 callgsubr
          hintmask 11011100
          -93 callsubr
          -298 -879 -107 callgsubr
          endchar
        </CharString>
        <CharString name="P">
          -16 21 -21 263 83 257 83 hstem
          556 97 vstem
          18 hmoveto
          95 hlineto
          46 263 37 callsubr
          -324 hlineto
          269 -340 rmoveto
          -234 hlineto
          45 257 rlineto
          234 hlineto
          69 34 -38 -66 -94 -66 -59 -82 hvcurveto
          endchar
        </CharString>
        <CharString name="Q">
          95 -12 81 -57 -21 626 81 hstemhm
          38 99 505 98 hintmask 10111000
          336 -12 rmoveto
          16 18 1 2 16 hvcurveto
          100 -121 rlineto
          121 hlineto
          hintmask 01111000
          -123 143 rlineto
          156 57 100 154 212 vvcurveto
          175 -109 87 -190 -240 -163 -177 -273 vhcurveto
          hintmask 10111000
          -174 109 -86 189 vhcurveto
          -6 81 rmoveto
          -121 -72 54 135 223 125 136 185 122 73 -54 -137 -223 -128 -134 -184 hvcurveto
          endchar
        </CharString>
        <CharString name="R">
          39 21 -44 callsubr
          endchar
        </CharString>
        <CharString name="Racute">
          27 callsubr
          50 132 hstem
          581 98 vstem
          1 callsubr
          -494 -868 rmoveto
          -90 callsubr
          endchar
        </CharString>
        <CharString name="Rcaron">
          27 callsubr
          47 135 hstem
          581 98 15 callsubr
          -436 -789 rmoveto
          -90 callsubr
          endchar
        </CharString>
        <CharString name="Rcommaaccent">
          39 -149 91 79 -44 callsubr
          -206 -596 -78 callgsubr
        </CharString>
        <CharString name="S">
          -16 13 callsubr
          -21 callgsubr
          hintmask 00000000
          hintmask 11010100
          529 493 -66 callgsubr
          hintmask 11011000
          -221 400 72 -156 vvcurveto
          -81 -85 -45 -130 vhcurveto
          hintmask 11101000
          -98 -67 33 69 15 5 18 3 10 hvcurveto
          -94 hlineto
          -5 -15 -3 -26 -18 vvcurveto
          -122 119 -45 151 153 151 62 159 vhcurveto
          hintmask 11011000
          221 -401 -67 148 vvcurveto
          73 86 33 106 vhcurveto
          hintmask 11010100
          88 61 -33 -60 -5 0 -11 -4 -15 hvcurveto
          endchar
        </CharString>
        <CharString name="Sacute">
          -16 13 callsubr
          38 132 -21 callgsubr
          hintmask 11101100
          377 736 -97 callgsubr
          hintmask 11101010
          44 -375 -100 callgsubr
          endchar
        </CharString>
        <CharString name="Sacute.loclPLK">
          -16 13 callsubr
          38 132 -21 callgsubr
          hintmask 11101100
          371 736 -55 callsubr
          hintmask 11101010
          112 -375 -100 callgsubr
          endchar
        </CharString>
        <CharString name="Scaron">
          -16 13 callsubr
          35 135 -21 callgsubr
          hintmask 11101100
          382 868 -100 callsubr
          hintmask 11101010
          102 -296 -100 callgsubr
          endchar
        </CharString>
        <CharString name="Scedilla">
          -16 42 callgsubr
          25 80 548 81 hstemhm
          19 94 -20 99 122 73 106 100 -60 94 hintmask 0000000000000000
          hintmask 1011101110000000
          228 -77 rmoveto
          -40 callsubr
          hintmask 0101101010000000
          -9 -49 rlineto
          hintmask 1011101110000000
          -47 callgsubr
          9 25 rlineto
          144 6 135 63 151 221 -401 -67 148 vvcurveto
          73 86 33 106 vhcurveto
          hintmask 1001101001000000
          88 61 -33 -60 -5 0 -11 -4 -15 hvcurveto
          -72 callsubr
          hintmask 1001101010000000
          -221 400 72 -156 vvcurveto
          -81 -85 -45 -130 vhcurveto
          hintmask 1001110010000000
          -98 -67 33 69 15 5 18 3 10 hvcurveto
          -94 hlineto
          -5 -15 -3 -26 -18 vvcurveto
          -112 100 -47 133 -7 vhcurveto
          endchar
        </CharString>
        <CharString name="Scircumflex">
          -16 13 callsubr
          35 135 -21 callgsubr
          hintmask 11101100
          -52 callsubr
          hintmask 11101010
          95 -319 -100 callgsubr
          endchar
        </CharString>
        <CharString name="Scommaaccent">
          -16 -149 91 46 81 548 81 -21 callgsubr
          hintmask 00000000
          hintmask 11101010
          529 493 -100 callgsubr
          -327 -723 rmoveto
          47 hlineto
          hintmask 11101100
          59 88 15 84 -69 callgsubr
          -16 -91 rlineto
          35 hlineto
          endchar
        </CharString>
        <CharString name="T">
          -72 21 -36 callgsubr
          endchar
        </CharString>
        <CharString name="Tbar">
          -72 21 -21 381 72 150 83 65 callgsubr
          197 hmoveto
          95 hlineto
          67 381 rlineto
          105 hlineto
          13 72 rlineto
          -105 hlineto
          26 150 rlineto
          236 -64 callgsubr
          -567 hlineto
          -15 -83 rlineto
          236 hlineto
          -26 -150 rlineto
          -105 hlineto
          -13 -72 rlineto
          105 hlineto
          endchar
        </CharString>
        <CharString name="Tcaron">
          -72 21 -21 603 83 47 135 65 callgsubr
          334 868 -100 callsubr
          -182 -789 rmoveto
          95 hlineto
          106 603 rlineto
          236 -64 callgsubr
          -567 hlineto
          -15 -83 rlineto
          236 hlineto
          endchar
        </CharString>
        <CharString name="Thorn">
          -16 21 -21 144 83 257 83 -83 202 hstemhm
          535 97 hintmask 11101000
          18 hmoveto
          95 hlineto
          25 144 37 callsubr
          -229 hlineto
          hintmask 11011000
          21 119 -17 callgsubr
          hintmask 11101000
          59 -202 rmoveto
          234 hlineto
          69 34 -38 -66 -94 -66 -59 -82 hvcurveto
          -234 hlineto
          endchar
        </CharString>
        <CharString name="U">
          -50 callsubr
          36 callsubr
          609 686 rmoveto
          -105 callgsubr
          76 433 rlineto
          endchar
        </CharString>
        <CharString name="Uacute">
          -50 callsubr
          70 132 36 callsubr
          1 callsubr
          97 -182 rmoveto
          -105 callgsubr
          76 433 rlineto
          endchar
        </CharString>
        <CharString name="Ubreve">
          -50 callsubr
          85 64 36 callsubr
          607 -73 callgsubr
          2 -182 rmoveto
          -105 callgsubr
          76 433 rlineto
          endchar
        </CharString>
        <CharString name="Ucircumflex">
          -50 callsubr
          67 135 36 callsubr
          504 -85 callgsubr
          148 -126 rmoveto
          -105 callgsubr
          76 433 rlineto
          endchar
        </CharString>
        <CharString name="Udieresis">
          -50 callsubr
          107 95 36 callsubr
          317 -68 callsubr
          88 -182 rmoveto
          -105 callgsubr
          76 433 rlineto
          endchar
        </CharString>
        <CharString name="Ugrave">
          -50 callsubr
          70 132 36 callsubr
          410 736 -86 callsubr
          284 -179 rmoveto
          -105 callgsubr
          76 433 rlineto
          endchar
        </CharString>
        <CharString name="Uhorn">
          -50 callsubr
          94 108 36 callsubr
          -90 callgsubr
          endchar
        </CharString>
        <CharString name="Uhungarumlaut">
          -50 callsubr
          70 132 36 callsubr
          336 736 -56 callgsubr
          45 -182 rmoveto
          -105 callgsubr
          76 433 rlineto
          endchar
        </CharString>
        <CharString name="Umacron">
          -50 callsubr
          97 72 36 callsubr
          277 763 -73 callsubr
          319 -149 rmoveto
          -105 callgsubr
          76 433 rlineto
          endchar
        </CharString>
        <CharString name="Uogonek">
          39 -182 65 106 80 617 -20 hstem
          60 95 87 85 vstem
          394 -168 rmoveto
          27 callgsubr
          25 14 24 17 17 hvcurveto
          144 12 96 81 30 170 76 433 rcurveline
          -95 hlineto
          -77 -438 rlineto
          -118 -21 -79 -61 -117 hhcurveto
          -102 -58 47 91 15 2 16 3 18 hvcurveto
          75 430 -17 callgsubr
          -74 -425 rlineto
          -4 -22 -2 -21 -20 vvcurveto
          -129 82 -72 148 -8 vhcurveto
          -26 -24 -22 -30 -43 -7 callsubr
          endchar
        </CharString>
        <CharString name="Uring">
          -50 callsubr
          45 45 102 45 hstemhm
          60 95 204 60 callgsubr
          554 823 -79 callgsubr
          hintmask 11011110
          101 -130 rmoveto
          -105 callgsubr
          76 433 rlineto
          endchar
        </CharString>
        <CharString name="Utilde">
          -50 callsubr
          98 28 callsubr
          60 95 hintmask 11011000
          634 868 -69 callsubr
          -25 -182 rmoveto
          -105 callgsubr
          76 433 rlineto
          endchar
        </CharString>
        <CharString name="V">
          -16 0 95 591 -20 hstem
          76 635 vstem
          210 hmoveto
          125 hlineto
          376 -29 callsubr
          -101 hlineto
          -318 -591 rlineto
          -5 hlineto
          -111 591 rlineto
          -100 hlineto
          endchar
        </CharString>
        <CharString name="W">
          33 callgsubr
          18 callsubr
          543 hmoveto
          -91 callgsubr
        </CharString>
        <CharString name="Wacute">
          33 callgsubr
          50 132 18 callsubr
          515 736 -97 callgsubr
          -80 -868 rmoveto
          -91 callgsubr
        </CharString>
        <CharString name="Wcircumflex">
          33 callgsubr
          47 135 18 callsubr
          615 -85 callgsubr
          -29 -812 rmoveto
          -91 callgsubr
        </CharString>
        <CharString name="Wdieresis">
          33 callgsubr
          87 95 18 callsubr
          428 -68 callsubr
          -89 -868 rmoveto
          -91 callgsubr
        </CharString>
        <CharString name="Wgrave">
          33 callgsubr
          50 132 18 callsubr
          521 736 -86 callsubr
          107 -865 rmoveto
          -91 callgsubr
        </CharString>
        <CharString name="X">
          46 callsubr
          hstem
          -55 750 vstem
          490 hmoveto
          111 hlineto
          -209 357 rlineto
          0 303 328 1 vvcurveto
          -117 hlineto
          -1 -230 -252 0 vhcurveto
          -148 253 rlineto
          -111 hlineto
          189 -324 -333 -362 rlineto
          116 hlineto
          264 286 rlineto
          endchar
        </CharString>
        <CharString name="Y">
          46 callsubr
          hstem
          76 636 vstem
          226 hmoveto
          -86 callgsubr
          endchar
        </CharString>
        <CharString name="Y.loclGUA">
          -15 callgsubr
          hstemhm
          45 98 -57 97 hintmask 11110000
          478 283 rmoveto
          6 hlineto
          -8 -45 rlineto
          -119 -21 -67 -50 -106 hhcurveto
          -97 -42 32 67 hvcurveto
          -98 -10 hlineto
          -118 93 -52 134 166 102 72 183 31 vhcurveto
          36 200 43 243 -17 callgsubr
          -39 -218 rlineto
          -131 -23 -83 -68 -109 hhcurveto
          hintmask 11101000
          -77 -41 34 67 11 1 13 3 14 hvcurveto
          49 278 -17 callgsubr
          -49 -273 rlineto
          -4 -22 -2 -21 -18 vvcurveto
          -114 69 -50 117 vhcurveto
          hintmask 11110000
          89 70 30 65 47 hvcurveto
          endchar
        </CharString>
        <CharString name="Yacute">
          -16 6 callsubr
          76 636 vstem
          377 736 -97 callgsubr
          -259 -868 rmoveto
          -86 callgsubr
          endchar
        </CharString>
        <CharString name="Yacute.loclGUA">
          -15 callgsubr
          70 132 32 callsubr
          377 736 -97 callgsubr
          -7 -585 -96 callgsubr
        </CharString>
        <CharString name="Ycircumflex">
          46 callsubr
          67 135 hstem
          76 636 -18 callsubr
          -208 -812 rmoveto
          -86 callgsubr
          endchar
        </CharString>
        <CharString name="Ycircumflex.loclGUA">
          -15 callgsubr
          67 135 32 callsubr
          -52 callsubr
          44 -529 -96 callgsubr
        </CharString>
        <CharString name="Ydieresis">
          46 callsubr
          107 95 hstem
          76 636 vstem
          290 -68 callsubr
          -268 -868 rmoveto
          -86 callgsubr
          endchar
        </CharString>
        <CharString name="Ydieresis.loclGUA">
          -15 callgsubr
          107 95 32 callsubr
          290 -68 callsubr
          -16 -585 -96 callgsubr
        </CharString>
        <CharString name="Ygrave">
          -16 6 callsubr
          76 636 vstem
          383 736 -86 callsubr
          -72 -865 rmoveto
          -86 callgsubr
          endchar
        </CharString>
        <CharString name="Ygrave.loclGUA">
          -15 callgsubr
          70 132 32 callsubr
          383 736 -86 callsubr
          180 -582 -96 callgsubr
        </CharString>
        <CharString name="Z">
          -72 0 83 520 83 hstem
          -37 677 vstem
          -37 hmoveto
          -82 callsubr
          endchar
        </CharString>
        <CharString name="Zacute">
          48 callsubr
          349 736 -97 callgsubr
          -494 -868 rmoveto
          -82 callsubr
          endchar
        </CharString>
        <CharString name="Zacute.loclPLK">
          48 callsubr
          343 736 -55 callsubr
          -426 -868 rmoveto
          -82 callsubr
          endchar
        </CharString>
        <CharString name="Zcaron">
          -72 0 83 520 83 47 135 hstem
          -37 677 vstem
          354 868 -100 callsubr
          -436 -789 rmoveto
          -82 callsubr
          endchar
        </CharString>
        <CharString name="Zdotaccent">
          -72 0 83 520 83 87 95 hstem
          -37 677 vstem
          355 -12 callgsubr
          -409 -868 rmoveto
          -82 callsubr
          endchar
        </CharString>
        <CharString name="a">
          -63 callgsubr
          -45 callsubr
          hintmask 00000000
          hintmask 10111000
          519 526 rmoveto
          -67 hlineto
          hintmask 11011000
          -106 callgsubr
          hintmask 10111000
          -58 callgsubr
          hintmask 11010000
          -103 callgsubr
          endchar
        </CharString>
        <CharString name="aacute">
          -63 callgsubr
          85 132 35 callgsubr
          273 591 -97 callgsubr
          hintmask 10111100
          138 -197 rmoveto
          -67 hlineto
          hintmask 11011100
          -106 callgsubr
          hintmask 10111100
          -58 callgsubr
          hintmask 11011000
          -103 callgsubr
          endchar
        </CharString>
        <CharString name="abreve">
          -63 callgsubr
          100 50 callsubr
          -45 callsubr
          hintmask 11001100
          476 723 rmoveto
          -61 hlineto
          hintmask 11010100
          -53 callsubr
          hintmask 11001100
          -99 callsubr
          hintmask 10101110
          43 -197 rmoveto
          -67 hlineto
          hintmask 11001110
          -106 callgsubr
          hintmask 10101110
          -58 callgsubr
          hintmask 11001100
          -103 callgsubr
          endchar
        </CharString>
        <CharString name="acircumflex">
          -63 callgsubr
          82 135 -56 56 -45 callsubr
          hintmask 11010100
          373 -84 callgsubr
          hintmask 10101110
          -2 callsubr
          hintmask 11010110
          -106 callgsubr
          hintmask 10101110
          -58 callgsubr
          hintmask 11010100
          -103 callgsubr
          endchar
        </CharString>
        <CharString name="acute">
          45 callgsubr
          63 210 vstem
          63 591 -97 callgsubr
          endchar
        </CharString>
        <CharString name="acute.loclPLK">
          45 callgsubr
          164 143 vstem
          164 591 -55 callsubr
          endchar
        </CharString>
        <CharString name="adieresis">
          -63 callgsubr
          122 95 35 callgsubr
          186 -68 callgsubr
          hintmask 10111100
          129 -197 rmoveto
          -67 hlineto
          hintmask 11011100
          -106 callgsubr
          hintmask 10111100
          -58 callgsubr
          hintmask 11011000
          -103 callgsubr
          endchar
        </CharString>
        <CharString name="ae">
          206 -65 callsubr
          58 callsubr
          hintmask 11110110
          594 -12 -30 callsubr
          hintmask 11101110
          -3 callsubr
          hintmask 11110110
          -45 callgsubr
        </CharString>
        <CharString name="aeacute">
          206 -65 callsubr
          53 132 58 callsubr
          hintmask 11111011
          459 591 -97 callgsubr
          27 -735 -30 callsubr
          hintmask 11110111
          -3 callsubr
          hintmask 11111011
          -45 callgsubr
        </CharString>
        <CharString name="agrave">
          -63 callgsubr
          85 132 35 callgsubr
          279 591 -86 callsubr
          hintmask 10111100
          325 -194 rmoveto
          -67 hlineto
          hintmask 11011100
          -106 callgsubr
          hintmask 10111100
          -58 callgsubr
          hintmask 11011000
          -103 callgsubr
          endchar
        </CharString>
        <CharString name="amacron">
          -63 callgsubr
          133 72 35 callgsubr
          182 639 -73 callsubr
          hintmask 10111100
          324 -185 rmoveto
          -67 hlineto
          hintmask 11011100
          -106 callgsubr
          hintmask 10111100
          -58 callgsubr
          hintmask 11011000
          -103 callgsubr
          endchar
        </CharString>
        <CharString name="ampersand">
          -16 -12 75 249 73 238 75 hstemhm
          11 93 -20 90 330 91 hintmask 11101100
          557 311 rmoveto
          85 hlineto
          13 74 rlineto
          -173 hlineto
          -34 -194 rlineto
          -85 -15 -65 -43 -114 hhcurveto
          hintmask 11110100
          -91 -59 32 77 112 99 28 85 hvcurveto
          59 hlineto
          13 73 rlineto
          -61 hlineto
          hintmask 11101100
          -69 -56 32 65 102 96 39 94 83 57 -30 -68 -8 0 -8 -3 -17 hvcurveto
          88 hlineto
          5 23 1 16 9 vvcurveto
          97 -92 61 -140 -155 -124 -78 -142 -61 35 -36 48 -25 vhcurveto
          -1 -4 rlineto
          hintmask 11110100
          -78 -21 -77 -67 -104 vvcurveto
          -108 94 -64 143 166 98 73 133 24 vhcurveto
          endchar
        </CharString>
        <CharString name="aogonek">
          -182 65 105 73 -44 -21 469 73 -12 -20 hstemhm
          21 92 200 85 -42 79 hintmask 11010110
          465 36 callgsubr
          -36 -8 19 22 50 67 21 30 9 hvcurveto
          hintmask 11001101
          10 57 rlineto
          -40 hlineto
          -20 -10 8 19 14 84 424 0 hvcurveto
          -67 hlineto
          hintmask 11010101
          -31 -60 rlineto
          -6 hlineto
          51 -25 -45 21 -72 hhcurveto
          -142 -110 -140 -219 -129 65 -62 100 65 65 32 63 36 hvcurveto
          6 hlineto
          hintmask 10110101
          -1 -9 -1 -7 -8 vvcurveto
          -34 13 -20 21 -9 vhcurveto
          hintmask 11010110
          -45 -24 -32 -31 -49 -7 callsubr
          -257 229 rmoveto
          -66 -29 43 80 150 57 131 115 76 31 -44 -80 -78 -49 -202 -135 hvcurveto
          endchar
        </CharString>
        <CharString name="approxequal">
          -134 69 92 -32 92 62 92 -32 92 hstemhm
          3 542 hintmask 00000000
          hintmask 01101000
          529 355 1 callgsubr
          hintmask 01101000
          65 callsubr
          hintmask 10011000
          -38 -214 1 callgsubr
          hintmask 10011000
          65 callsubr
          endchar
        </CharString>
        <CharString name="aring">
          -63 callgsubr
          60 45 102 45 51 callsubr
          hintmask 1101111010000000
          423 678 -79 callgsubr
          hintmask 1010111100000000
          142 -145 rmoveto
          -67 hlineto
          hintmask 1100111100000000
          -106 callgsubr
          hintmask 1010111100000000
          -58 callgsubr
          hintmask 1100111010000000
          -103 callgsubr
          endchar
        </CharString>
        <CharString name="aringacute">
          -63 callgsubr
          60 45 102 45 23 132 51 callsubr
          hintmask 1100111101000000
          302 781 -97 callgsubr
          hintmask 1101101101000000
          13 -235 -79 callgsubr
          hintmask 1010101110000000
          142 -145 rmoveto
          -67 hlineto
          hintmask 1100101110000000
          -106 callgsubr
          hintmask 1010101110000000
          -58 callgsubr
          hintmask 1100101101000000
          -103 callgsubr
          endchar
        </CharString>
        <CharString name="arrowboth">
          317 216 73 hstem
          40 920 21 callgsubr
          -550 hlineto
          77 137 rlineto
          -52 hlineto
          -216 59 callgsubr
          -29 137 rlineto
          550 hlineto
          -82 -137 rlineto
          endchar
        </CharString>
        <CharString name="arrowdown">
          -183 10 -21 hstem
          25 355 vstem
          362 710 rmoveto
          -73 hlineto
          -130 -737 -126 58 -8 -42 129 -197 rlineto
          21 hlineto
          196 189 9 50 -148 -58 rlineto
          endchar
        </CharString>
        <CharString name="arrowleft">
          317 216 73 hstem
          33 926 vstem
          209 216 rmoveto
          737 hlineto
          13 73 rlineto
          -737 hlineto
          82 137 rlineto
          -50 hlineto
          -218 59 callgsubr
          endchar
        </CharString>
        <CharString name="arrowright">
          317 216 73 hstem
          34 926 21 callgsubr
          -737 hlineto
          -13 -73 rlineto
          737 hlineto
          -82 -137 rlineto
          endchar
        </CharString>
        <CharString name="arrowup">
          -183 -208 918 hstem
          105 355 vstem
          123 -208 rmoveto
          73 hlineto
          130 737 126 -58 8 42 -129 197 rlineto
          -21 hlineto
          -196 -189 -9 -50 148 58 rlineto
          endchar
        </CharString>
        <CharString name="arrowupdn">
          -183 12 -21 hstem
          29 440 vstem
          158 -206 56 callgsubr
          97 550 24 callsubr
          -97 -550 -127 58 -8 -42 rlineto
          endchar
        </CharString>
        <CharString name="arrowupdnbse">
          -183 -233 48 hstem
          -14 480 vstem
          167 -136 56 callgsubr
          85 480 24 callsubr
          -85 -480 -127 58 -8 -42 rlineto
          -52 -294 rmoveto
          349 hlineto
          9 48 rlineto
          -349 hlineto
          endchar
        </CharString>
        <CharString name="asciicircum">
          -214 609 77 0 -20 hstemhm
          23 419 hintmask 01100000
          354 294 rmoveto
          88 hlineto
          -88 392 rlineto
          -107 hlineto
          -224 -392 rlineto
          91 hlineto
          hintmask 10100000
          174 315 rlineto
          endchar
        </CharString>
        <CharString name="asciitilde">
          -99 223 93 -32 93 hstemhm
          25 533 hintmask 00000000
          hintmask 10100000
          542 296 rmoveto
          16 93 rlineto
          0 -73 -73 -85 vhcurveto
          hintmask 01100000
          -78 -47 61 -76 hhcurveto
          -97 -61 -73 0 hvcurveto
          -16 -93 rlineto
          0 73 73 85 vhcurveto
          hintmask 10100000
          78 47 -61 76 hhcurveto
          97 61 73 0 hvcurveto
          endchar
        </CharString>
        <CharString name="asterisk">
          -294 686 -20 hstemhm
          202 47 -30 47 hintmask 00000000
          hintmask 11000000
          251 481 rmoveto
          83 -74 53 71 -103 46 120 47 -29 70 rlineto
          hintmask 10100000
          -109 -73 38 118 rlineto
          -83 hlineto
          -4 -119 -83 74 -53 -70 104 -47 -121 -46 29 -71 rlineto
          hintmask 11000000
          109 74 -38 -119 rlineto
          83 hlineto
          endchar
        </CharString>
        <CharString name="at">
          332 -153 58 117 66 365 68 119 58 hstem
          53 68 164 87 221 76 227 67 vstem
          685 22 rmoveto
          202 76 198 159 197 -138 122 -257 -310 -205 -156 -350 -200 99 -145 303 80 58 9 5 33 hvcurveto
          11 62 rlineto
          0 -77 -18 -105 -258 -76 124 170 301 183 140 264 214 114 -100 -161 -147 -71 -144 -119 -25 -12 7 18 19 76 378 0 vhcurveto
          -65 hlineto
          -28 -54 rlineto
          -6 hlineto
          46 -22 -41 19 -65 hhcurveto
          -131 -102 -127 -199 -117 61 -56 93 59 59 29 57 32 hvcurveto
          6 hlineto
          -1 -7 -1 -6 -5 vvcurveto
          -52 49 -16 43 vhcurveto
          -226 68 rmoveto
          -60 -27 37 73 136 52 117 105 68 29 -38 -73 -71 -45 -181 -122 hvcurveto
          endchar
        </CharString>
        <CharString name="atilde">
          -63 callgsubr
          113 73 -42 73 -45 callsubr
          hintmask 11001100
          503 723 rmoveto
          -65 hlineto
          hintmask 11010100
          -98 callgsubr
          hintmask 11001100
          -93 callsubr
          hintmask 10101110
          16 -197 rmoveto
          -67 hlineto
          hintmask 11001110
          -106 callgsubr
          hintmask 10101110
          -58 callgsubr
          hintmask 11001100
          -103 callgsubr
          endchar
        </CharString>
        <CharString name="b">
          -12 73 -40 42 callsubr
          hstemhm
          427 91 hintmask 00000000
          hintmask 01111000
          13 hmoveto
          66 hlineto
          hintmask 10111000
          23 71 rlineto
          6 hlineto
          -55 28 58 -28 73 hhcurveto
          149 102 144 215 132 -64 59 -102 -70 -52 -27 -45 -41 hvcurveto
          -6 hlineto
          45 257 -69 callgsubr
          108 -662 rmoveto
          -76 -32 47 86 135 60 136 119 74 34 -33 -88 -155 -58 -128 -121 hvcurveto
          endchar
        </CharString>
        <CharString name="backslash">
          -405 735 -20 hstem
          70 137 vstem
          136 -49 rmoveto
          71 hlineto
          -67 784 rlineto
          -70 hlineto
          endchar
        </CharString>
        <CharString name="bar">
          52 callgsubr
          -173 rmoveto
          78 896 -78 hlineto
          endchar
        </CharString>
        <CharString name="braceleft">
          48 callgsubr
          66 78 -38 71 hintmask 10111000
          213 -159 rmoveto
          10 57 rlineto
          -37 -42 10 47 hvcurveto
          hintmask 11110100
          38 33 169 45 vvcurveto
          48 -19 28 -53 vhcurveto
          2 10 rlineto
          hintmask 10110100
          64 25 31 77 18 hvcurveto
          6 27 31 144 7 35 rrcurveto
          59 11 51 12 40 hhcurveto
          10 57 rlineto
          -99 -74 -22 -126 -22 hvcurveto
          -35 -197 rlineto
          -45 -8 -45 -15 -39 hhcurveto
          hintmask 11110100
          -15 -84 rlineto
          35 38 -11 -39 hvcurveto
          hintmask 10111000
          -38 -40 -159 -51 vvcurveto
          -90 68 -17 79 vhcurveto
          endchar
        </CharString>
        <CharString name="braceright">
          48 callgsubr
          136 71 -38 78 hintmask 11010100
          100 735 rmoveto
          -10 -57 rlineto
          37 42 -10 -47 hvcurveto
          hintmask 11111000
          -38 -33 -169 -45 vvcurveto
          -48 19 -28 53 vhcurveto
          -2 -10 rlineto
          hintmask 11011000
          -64 -25 -31 -77 -18 hvcurveto
          -6 -27 -31 -144 -7 -35 rrcurveto
          -59 -11 -51 -12 -40 hhcurveto
          -10 -57 rlineto
          99 74 22 126 22 hvcurveto
          35 197 rlineto
          45 8 45 15 39 hhcurveto
          hintmask 11111000
          15 84 rlineto
          -35 -38 11 39 hvcurveto
          hintmask 11010100
          38 40 159 51 vvcurveto
          90 -68 17 -79 vhcurveto
          endchar
        </CharString>
        <CharString name="bracketleft">
          -405 -161 65 766 65 hstem
          -15 344 vstem
          -15 -161 rmoveto
          187 hlineto
          11 65 rlineto
          -109 hlineto
          135 766 rlineto
          109 hlineto
          11 65 rlineto
          -188 hlineto
          endchar
        </CharString>
        <CharString name="bracketright">
          -405 -161 65 766 65 hstem
          -75 344 vstem
          -75 -161 rmoveto
          187 hlineto
          157 896 rlineto
          -188 hlineto
          -11 -65 rlineto
          109 hlineto
          -135 -766 rlineto
          -108 hlineto
          endchar
        </CharString>
        <CharString name="breve">
          -350 606 50 callsubr
          hstemhm
          29 293 hintmask 01100000
          322 723 rmoveto
          -61 hlineto
          hintmask 10100000
          -53 callsubr
          hintmask 01100000
          -99 callsubr
          endchar
        </CharString>
        <CharString name="brokenbar">
          52 callgsubr
          357 rmoveto
          78 366 -78 hlineto
          -896 vmoveto
          78 366 -78 hlineto
          endchar
        </CharString>
        <CharString name="bullet">
          -333 220 247 hstem
          49 251 vstem
          300 364 rmoveto
          58 -45 45 -63 -91 -52 -68 -77 -58 45 -44 63 91 52 67 77 vhcurveto
          endchar
        </CharString>
        <CharString name="c">
          20 callgsubr
          45 callsubr
          451 195 -89 callsubr
        </CharString>
        <CharString name="cacute">
          20 callgsubr
          53 132 45 callsubr
          264 591 -97 callgsubr
          79 -528 -89 callsubr
        </CharString>
        <CharString name="cacute.loclPLK">
          20 callgsubr
          53 132 45 callsubr
          258 591 -55 callsubr
          147 -528 -89 callsubr
        </CharString>
        <CharString name="caron">
          -350 588 135 hstem
          30 295 vstem
          116 723 -100 callsubr
          endchar
        </CharString>
        <CharString name="ccaron">
          20 callgsubr
          50 135 45 callsubr
          269 723 -100 callsubr
          137 -449 -89 callsubr
        </CharString>
        <CharString name="ccedilla">
          -183 42 callgsubr
          49 -21 473 73 hstemhm
          21 92 116 73 83 91 hintmask 00000000
          hintmask 10111111
          143 -77 rmoveto
          -40 callsubr
          hintmask 01011111
          -9 -49 rlineto
          hintmask 10111111
          -47 callgsubr
          8 24 136 2 69 94 18 111 rlinecurve
          -85 hlineto
          -67 -13 -43 -67 -89 hhcurveto
          -70 -38 37 100 110 34 157 139 81 18 -48 -57 -10 0 -9 -1 -10 hvcurveto
          90 hlineto
          1 12 1 13 12 vvcurveto
          98 -50 72 -143 -193 -69 -179 -166 vhcurveto
          hintmask 10011111
          -119 45 -66 102 -16 vhcurveto
          endchar
        </CharString>
        <CharString name="ccircumflex">
          20 callgsubr
          50 135 -56 56 hstemhm
          21 92 272 91 hintmask 11101100
          364 -84 callgsubr
          hintmask 11011100
          -30 callgsubr
          130 -472 -89 callsubr
        </CharString>
        <CharString name="cdotaccent">
          20 callgsubr
          90 95 45 callsubr
          270 -13 callsubr
          164 -528 -89 callsubr
        </CharString>
        <CharString name="cedilla">
          -350 47 callgsubr
          88 hstemhm
          190 73 hintmask 10110000
          104 -77 rmoveto
          -40 callsubr
          hintmask 01110000
          -9 -49 rlineto
          hintmask 10110000
          -47 callgsubr
          17 47 rlineto
          -62 hlineto
          endchar
        </CharString>
        <CharString name="cent">
          723 -20 hstem
          58 92 272 91 vstem
          382 723 rmoveto
          -51 hlineto
          -19 -108 rlineto
          -187 -5 -67 -176 -163 vvcurveto
          -123 48 -66 109 -14 vhcurveto
          -21 -117 rlineto
          51 hlineto
          20 115 136 2 69 94 18 111 rlinecurve
          -85 hlineto
          -12 -62 -37 -62 -76 -9 71 401 rcurveline
          59 -10 14 -43 -50 vvcurveto
          -10 0 -9 -1 -10 vhcurveto
          90 hlineto
          1 12 1 13 12 vvcurveto
          87 -40 67 -111 13 vhcurveto
          -212 -337 rmoveto
          103 30 145 119 17 vhcurveto
          -71 -400 rlineto
          -51 10 -27 40 85 vvcurveto
          endchar
        </CharString>
        <CharString name="circumflex">
          -350 588 135 -56 56 hstemhm
          7 295 hintmask 10100000
          216 -84 callgsubr
          hintmask 01100000
          -30 callgsubr
          endchar
        </CharString>
        <CharString name="colon">
          -405 0 108 310 108 hstem
          36 193 vstem
          110 418 -42 callgsubr
          -93 -526 -42 callgsubr
          endchar
        </CharString>
        <CharString name="comma">
          -405 0 108 hstem
          12 143 vstem
          12 -134 -34 callsubr
          endchar
        </CharString>
        <CharString name="copyright">
          54 -12 47 99 55 308 56 98 47 hstem
          13 49 129 69 198 68 148 -46 callsubr
          158 257 rmoveto
          -64 hlineto
          -67 -26 -36 -68 -76 -32 44 110 111 34 43 74 70 20 -32 -70 vhcurveto
          68 hlineto
          102 -46 56 -112 -121 -56 -66 -144 -144 55 -65 122 114 44 74 84 vhcurveto
          endchar
        </CharString>
        <CharString name="currency">
          102 79 338 79 hstem
          33 82 326 82 vstem
          427 157 rmoveto
          55 -58 45 45 -54 56 rlineto
          34 42 16 54 55 vvcurveto
          55 -16 56 -34 39 vhcurveto
          55 54 -48 48 -57 -56 rlineto
          33 -38 -54 18 -53 hhcurveto
          -53 -54 -18 -33 -38 hvcurveto
          -57 56 -48 -48 55 -54 rlineto
          -34 -39 -16 -56 -55 vvcurveto
          -55 16 -54 34 -42 vhcurveto
          -54 -56 45 -45 55 58 rlineto
          -37 40 55 -18 54 hhcurveto
          54 55 18 37 40 hvcurveto
          -149 24 rmoveto
          -91 -72 79 91 89 73 79 90 90 73 -79 -89 -91 -72 -79 -91 hvcurveto
          endchar
        </CharString>
        <CharString name="d">
          -12 37 callgsubr
          hintmask 01111100
          370 hmoveto
          65 hlineto
          -29 callgsubr
          -45 -257 -47 callsubr
          hvcurveto
          hintmask 10111100
          -11 callgsubr
          endchar
        </CharString>
        <CharString name="dagger">
          686 -20 hstem
          66 482 vstem
          148 -170 rmoveto
          94 hlineto
          89 601 11 callsubr
          rlineto
          endchar
        </CharString>
        <CharString name="daggerdbl">
          686 -20 hstem
          -4 551 vstem
          259 27 rmoveto
          200 -17 17 93 -206 -18 47 175 13 171 11 callsubr
          -47 -171 -13 -175 -199 18 -15 -93 203 17 -49 -197 rlineto
          88 hlineto
          endchar
        </CharString>
        <CharString name="dcaron">
          -58 -12 73 -61 61 404 73 -48 196 -91 91 -91 128 hstemhm
          21 92 257 65 hintmask 00000000
          hintmask 01100111
          370 hmoveto
          65 hlineto
          -29 callgsubr
          -45 -257 -47 callsubr
          hvcurveto
          hintmask 10010011
          -19 callgsubr
          vhcurveto
          6 hlineto
          212 419 rmoveto
          46 hlineto
          hintmask 10101010
          -19 callsubr
          32 hlineto
          -411 -534 -43 callgsubr
        </CharString>
        <CharString name="dcroat">
          -12 73 -61 61 404 73 58 62 -62 127 hstemhm
          21 92 257 65 hintmask 00000000
          hintmask 01101110
          370 hmoveto
          65 hlineto
          104 596 rlineto
          70 hlineto
          hintmask 10110100
          11 62 rlineto
          -70 hlineto
          hintmask 10101100
          12 65 -69 callgsubr
          hintmask 10110100
          -12 -65 rlineto
          -136 hlineto
          hintmask 10101110
          -11 -62 rlineto
          137 hlineto
          -23 -130 -47 callsubr
          -19 callgsubr
          hvcurveto
          6 hlineto
          -146 -10 -43 callgsubr
        </CharString>
        <CharString name="degree">
          -283 428 53 163 54 hstem
          90 53 163 54 vstem
          225 428 rmoveto
          75 60 60 75 75 -60 60 -75 -75 -60 -60 -75 -75 60 -60 75 hvcurveto
          53 vmoveto
          -45 -37 37 45 45 37 36 45 45 36 -36 -45 -45 -36 -37 -45 hvcurveto
          endchar
        </CharString>
        <CharString name="dieresis">
          -350 628 95 hstem
          21 291 vstem
          21 -68 callgsubr
          endchar
        </CharString>
        <CharString name="divide">
          -134 0 100 114 83 114 100 hstem
          30 488 vstem
          251 411 rmoveto
          100 hlineto
          18 100 rlineto
          -100 hlineto
          -239 -297 rmoveto
          473 -64 callgsubr
          -473 hlineto
          133 -297 rmoveto
          100 hlineto
          18 100 rlineto
          -100 hlineto
          endchar
        </CharString>
        <CharString name="dollar">
          69 71 583 -20 hstemhm
          38 90 -32 94 189 95 -60 90 hintmask 01011000
          374 723 rmoveto
          -51 hlineto
          -19 -106 rlineto
          -119 -4 -89 -65 -101 vvcurveto
          -84 80 -25 75 -22 vhcurveto
          hintmask 11101000
          -32 -176 rlineto
          -53 5 -38 23 48 vvcurveto
          6 1 5 1 6 vhcurveto
          2 10 rlineto
          -87 hlineto
          0 -7 -24 -22 vvcurveto
          -63 48 -55 121 -10 vhcurveto
          -21 -118 rlineto
          51 hlineto
          20 116 rlineto
          114 2 103 56 125 vvcurveto
          90 -83 27 -77 21 vhcurveto
          hintmask 01010100
          28 154 rlineto
          54 -6 18 -28 -31 vvcurveto
          -5 0 -4 -1 -5 vhcurveto
          -2 -9 rlineto
          86 hlineto
          3 6 4 21 14 vvcurveto
          60 -50 49 -99 11 vhcurveto
          -165 -148 rmoveto
          24 17 44 84 8 vhcurveto
          -25 -141 rlineto
          -44 13 -32 17 35 vvcurveto
          hintmask 01011000
          189 -241 rmoveto
          -49 -48 -30 -61 -7 vhcurveto
          29 162 rlineto
          45 -16 35 -20 -40 vvcurveto
          endchar
        </CharString>
        <CharString name="dotaccent">
          -350 628 95 hstem
          114 104 vstem
          114 -13 callsubr
          endchar
        </CharString>
        <CharString name="dotbelowcomb">
          -683 -173 95 hstem
          -295 104 vstem
          -295 -173 -102 callgsubr
          endchar
        </CharString>
        <CharString name="dotlessi">
          -32 callgsubr
          hstem
          35 181 vstem
          35 hmoveto
          -59 callsubr
          endchar
        </CharString>
        <CharString name="e">
          -65 callsubr
          -6 callgsubr
          114 239 -106 callsubr
          endchar
        </CharString>
        <CharString name="eacute">
          -65 callsubr
          53 132 -6 callgsubr
          292 591 -97 callgsubr
          -286 -484 -106 callsubr
          endchar
        </CharString>
        <CharString name="ebreve">
          -65 callsubr
          68 50 callsubr
          hstemhm
          -24 callsubr
          hintmask 11101110
          495 723 rmoveto
          -61 hlineto
          hintmask 11110110
          -53 callsubr
          hintmask 11101110
          -99 callsubr
          -381 -484 -106 callsubr
          endchar
        </CharString>
        <CharString name="ecaron">
          -65 callsubr
          50 135 -6 callgsubr
          297 723 -100 callsubr
          -228 -405 -106 callsubr
          endchar
        </CharString>
        <CharString name="ecircumflex">
          -65 callsubr
          50 135 -56 56 hstemhm
          -24 callsubr
          hintmask 11110110
          392 -84 callgsubr
          hintmask 11101110
          -30 callgsubr
          -235 -428 -106 callsubr
          endchar
        </CharString>
        <CharString name="edieresis">
          -65 callsubr
          90 95 -6 callgsubr
          205 -68 callgsubr
          -295 -484 -106 callsubr
          endchar
        </CharString>
        <CharString name="edotaccent">
          -65 callsubr
          90 95 -6 callgsubr
          298 -13 callsubr
          -201 -484 -106 callsubr
          endchar
        </CharString>
        <CharString name="egrave">
          -65 callsubr
          53 132 -6 callgsubr
          298 591 -86 callsubr
          -99 -481 -106 callsubr
          endchar
        </CharString>
        <CharString name="eight">
          -12 73 253 73 238 73 hstemhm
          12 91 -17 89 230 92 -52 89 hintmask 11101100
          409 352 rmoveto
          hintmask 11101010
          82 37 43 70 77 vvcurveto
          92 -65 70 -135 -151 -97 -102 -117 -53 23 -46 48 -28 vhcurveto
          hintmask 11110100
          -98 -35 -47 -75 -89 vvcurveto
          -94 61 -71 156 179 89 107 123 vhcurveto
          hintmask 11101100
          60 -26 46 -62 28 vhcurveto
          hintmask 11101010
          -120 35 rmoveto
          -72 -42 35 59 89 67 55 89 72 42 -35 -59 -94 -75 -50 -81 hvcurveto
          hintmask 11110100
          -57 -326 rmoveto
          -85 -44 38 61 94 68 60 105 86 43 -37 -62 -109 -87 -45 -86 hvcurveto
          endchar
        </CharString>
        <CharString name="ellipsis">
          317 0 108 hstem
          85 785 vstem
          85 hmoveto
          53 callsubr
          313 -108 rmoveto
          53 callsubr
          312 -108 rmoveto
          53 callsubr
          endchar
        </CharString>
        <CharString name="emacron">
          -65 callsubr
          101 72 -6 callgsubr
          183 639 -73 callsubr
          -82 -472 -106 callsubr
          endchar
        </CharString>
        <CharString name="emdash">
          317 233 75 hstem
          -6 1012 vstem
          -6 233 rmoveto
          999 hlineto
          13 75 rlineto
          -1000 hlineto
          endchar
        </CharString>
        <CharString name="endash">
          233 75 hstem
          -6 568 vstem
          -6 233 rmoveto
          555 hlineto
          13 75 rlineto
          -556 hlineto
          endchar
        </CharString>
        <CharString name="eng">
          -182 69 134 -4 callgsubr
          0 callgsubr
          hintmask 11101100
          410 343 rmoveto
          -71 -408 14 callgsubr
          72 410 rlineto
          4 23 3 24 18 vvcurveto
          90 -60 34 -97 20 callsubr
          vhcurveto
          -7 hlineto
          hintmask 11011100
          -60 callsubr
          hintmask 11101100
          -81 callgsubr
          endchar
        </CharString>
        <CharString name="eogonek">
          -182 65 105 -60 callgsubr
          hstem
          21 90 161 85 65 89 vstem
          424 36 callgsubr
          -33 -11 24 27 43 30 44 21 18 hvcurveto
          43 37 24 41 10 62 rrcurveto
          34 callsubr
          381 hlineto
          8 44 rlineto
          5 27 3 24 23 vvcurveto
          119 -74 62 -132 -200 -84 -155 -187 -142 77 -66 155 16 16 2 2 15 vhcurveto
          -16 -24 -12 -29 -37 vvcurveto
          -64 46 -20 42 20 21 5 9 23 vhcurveto
          -6 480 22 callsubr
        </CharString>
        <CharString name="equal">
          -99 106 83 129 84 hstem
          29 526 vstem
          67 318 rmoveto
          473 hlineto
          15 84 rlineto
          -473 hlineto
          -53 -296 rmoveto
          473 -64 callgsubr
          -473 hlineto
          endchar
        </CharString>
        <CharString name="equivalence">
          -100 7 83 129 84 129 84 hstem
          0 561 vstem
          75 432 rmoveto
          472 hlineto
          14 84 rlineto
          -472 hlineto
          -52 -297 rmoveto
          472 hlineto
          15 84 rlineto
          -472 hlineto
          -52 -296 rmoveto
          472 hlineto
          14 83 rlineto
          -472 hlineto
          endchar
        </CharString>
        <CharString name="estimated">
          -83 -12 42 218 42 206 42 hstem
          45 108 298 108 vstem
          526 118 rmoveto
          -34 21 rlineto
          -67 -34 -68 -42 -88 hhcurveto
          -62 -50 19 34 -37 hvcurveto
          165 406 5 vlineto
          165 -98 120 -159 -160 -97 -116 -159 -159 97 -116 160 104 78 50 80 42 vhcurveto
          -75 323 rmoveto
          -151 -298 152 vlineto
          34 37 50 20 62 hhcurveto
          61 50 -20 -35 38 hvcurveto
          endchar
        </CharString>
        <CharString name="eth">
          33 callsubr
          68 58 -58 117 -101 63 -17 55 hstemhm
          21 92 311 92 hintmask 11001011
          297 538 rmoveto
          -205 -71 -179 -174 -134 75 -63 144 205 71 178 173 106 -39 96 -60 78 hvcurveto
          94 6 11 60 -154 -10 rlineto
          hintmask 11010011
          -15 17 -16 15 -18 16 rrcurveto
          -98 hlineto
          -2 -4 rlineto
          hintmask 11000111
          20 -18 21 -16 18 -17 rrcurveto
          hintmask 11100011
          -101 -8 rlineto
          hintmask 11010011
          -10 -60 154 12 22 -29 20 -29 15 -30 rlinecurve
          hintmask 11001011
          9 -24 -27 5 -30 hhcurveto
          -54 -477 15 callgsubr
          endchar
        </CharString>
        <CharString name="exclam">
          -405 0 108 578 -20 hstem
          29 228 vstem
          78 171 32 callgsubr
          -114 -686 -42 callgsubr
          endchar
        </CharString>
        <CharString name="exclamdbl">
          -183 0 108 578 -20 hstem
          37 448 vstem
          86 171 32 callgsubr
          155 -515 32 callgsubr
          -334 -686 -42 callgsubr
          201 -108 -42 callgsubr
          endchar
        </CharString>
        <CharString name="exclamdown">
          -350 418 108 hstem
          62 228 vstem
          171 418 -42 callgsubr
          -128 -686 rmoveto
          114 hlineto
          65 515 rlineto
          -62 hlineto
          endchar
        </CharString>
        <CharString name="f">
          -405 -182 73 562 73 132 73 hstem
          -101 446 vstem
          32 453 rmoveto
          -57 callgsubr
          101 hlineto
          13 73 rlineto
          -101 hlineto
          -31 callgsubr
          endchar
        </CharString>
        <CharString name="f_f">
          -182 73 130 -21 453 73 132 73 hstem
          -101 724 vstem
          560 658 rmoveto
          -55 callgsubr
          -190 hlineto
          -31 callgsubr
          -13 -73 rlineto
          -57 callgsubr
          190 hlineto
          -80 -453 rlineto
          88 hlineto
          80 453 rlineto
          101 hlineto
          13 73 rlineto
          -101 hlineto
          15 84 rlineto
          31 5 19 17 33 hhcurveto
          endchar
        </CharString>
        <CharString name="fi">
          -183 -182 73 130 -21 453 73 99 98 -65 73 hstemhm
          -101 607 hintmask 11110100
          32 453 rmoveto
          -57 callgsubr
          101 hlineto
          13 73 rlineto
          -101 hlineto
          hintmask 11101100
          -31 callgsubr
          hintmask 11110100
          356 99 -33 callsubr
          -127 -24 callgsubr
        </CharString>
        <CharString name="five">
          -12 72 312 74 156 84 hstem
          14 91 305 93 vstem
          213 602 rmoveto
          315 hlineto
          15 84 rlineto
          -390 hlineto
          -95 -380 79 -13 rlineto
          47 38 62 32 67 hhcurveto
          66 40 -40 -73 -146 -95 -53 -92 -70 -48 45 75 10 1 11 2 12 hvcurveto
          -90 hlineto
          -3 -17 -1 -16 -15 vvcurveto
          -111 80 -66 134 151 124 101 178 122 -75 57 -103 -76 -54 -24 -28 -36 vhcurveto
          endchar
        </CharString>
        <CharString name="fiveeighths">
          54 callgsubr
          -36 55 134 56 63 56 12 -20 hstemhm
          61 64 132 65 175 43 callgsubr
          hintmask 1101110110110000
          55 -12 rmoveto
          80 hlineto
          hintmask 1101101110110000
          671 710 rlineto
          -80 hlineto
          hintmask 1101110110110000
          -550 -68 rmoveto
          158 hlineto
          10 56 rlineto
          -211 hlineto
          -48 -186 53 -9 rlineto
          14 22 20 6 26 hhcurveto
          30 21 -14 -34 -58 -41 -28 -40 -31 -20 19 32 4 0 5 1 5 hvcurveto
          -63 hlineto
          -2 -9 0 -8 -8 vvcurveto
          -60 44 -35 74 80 63 54 92 67 -42 32 -57 -28 -22 -7 -9 -17 vhcurveto
          560 -372 rmoveto
          hintmask 1110110110101000
          -28 callsubr
          hintmask 1101110111010000
          -11 callsubr
          hintmask 1101110110110000
          57 callgsubr
          hintmask 1110110110101000
          -27 callgsubr
          hintmask 1101110111010000
          -35 callgsubr
        </CharString>
        <CharString name="fl">
          -183 -182 73 130 -21 453 73 132 65 -65 73 hstemhm
          -101 607 hintmask 11101100
          32 453 rmoveto
          -57 callgsubr
          101 hlineto
          13 73 rlineto
          -101 hlineto
          -31 callgsubr
          246 -526 rmoveto
          88 hlineto
          hintmask 11110100
          -29 callgsubr
          endchar
        </CharString>
        <CharString name="florin">
          -183 73 512 73 183 73 hstem
          -24 556 vstem
          249 402 rmoveto
          -140 -464 rlineto
          -31 -10 -20 -17 -33 hhcurveto
          -52 hlineto
          -18 -61 rlineto
          -7 15 29 -5 27 hhcurveto
          101 31 61 60 18 hvcurveto
          140 464 rlineto
          101 hlineto
          21 73 rlineto
          -101 hlineto
          41 135 rlineto
          31 10 20 17 33 hhcurveto
          52 hlineto
          18 61 rlineto
          7 -15 -29 5 -27 hhcurveto
          -101 -31 -61 -60 -18 hvcurveto
          -41 -135 rlineto
          -77 hlineto
          -21 -73 rlineto
          endchar
        </CharString>
        <CharString name="four">
          21 -21 169 73 456 -20 hstem
          2 510 vstem
          290 hmoveto
          88 hlineto
          30 169 rlineto
          91 hlineto
          13 73 rlineto
          -91 hlineto
          62 354 rlineto
          -47 hlineto
          -23 -52 -16 -33 -25 -44 -39 -225 rcurveline
          -233 hlineto
          50 55 152 217 74 184 rrcurveto
          -98 hlineto
          -68 -168 -88 -145 -108 -142 -12 -74 rcurveline
          318 hlineto
          endchar
        </CharString>
        <CharString name="fraction">
          3 callgsubr
        </CharString>
        <CharString name="franc">
          21 -21 312 73 -2 93 135 75 hstemhm
          18 548 hintmask 11011000
          239 hmoveto
          88 hlineto
          44 249 rlineto
          hintmask 10111000
          99 17 64 35 62 hhcurveto
          37 hlineto
          15 85 rlineto
          0 -18 8 -28 vhcurveto
          hintmask 11011000
          -66 -40 -47 -44 -24 hvcurveto
          -6 hlineto
          hintmask 10111000
          4 79 rlineto
          -67 hlineto
          hintmask 11011000
          -14 -79 rlineto
          -131 hlineto
          40 226 rlineto
          258 hlineto
          13 75 rlineto
          -348 8 callgsubr
          90 hlineto
          55 312 rlineto
          131 hlineto
          endchar
        </CharString>
        <CharString name="g">
          -37 callgsubr
          hstemhm
          21 91 hintmask 11101000
          360 80 -83 callgsubr
          hintmask 11011000
          16 callgsubr
          hintmask 11101000
          -95 callsubr
        </CharString>
        <CharString name="g_tilde.loclGUA">
          -37 callgsubr
          113 28 callsubr
          21 91 hintmask 11100110
          522 723 rmoveto
          -65 hlineto
          hintmask 11101010
          -98 callgsubr
          hintmask 11100110
          -93 callsubr
          -162 -9 callgsubr
          hintmask 11010110
          16 callgsubr
          hintmask 11100110
          -95 callsubr
        </CharString>
        <CharString name="gbreve">
          -37 callgsubr
          100 50 callsubr
          hstemhm
          21 91 hintmask 11100110
          495 723 rmoveto
          -61 hlineto
          hintmask 11101010
          -53 callsubr
          hintmask 11100110
          -99 callsubr
          -135 -9 callgsubr
          hintmask 11010110
          16 callgsubr
          hintmask 11100110
          -95 callsubr
        </CharString>
        <CharString name="gcaron">
          -37 callgsubr
          82 135 hstemhm
          21 91 hintmask 11101100
          297 723 -100 callsubr
          18 -564 -83 callgsubr
          hintmask 11011100
          16 callgsubr
          hintmask 11101100
          -95 callsubr
        </CharString>
        <CharString name="gcircumflex">
          -37 callgsubr
          82 135 -56 56 hstemhm
          21 91 hintmask 11101010
          392 -84 callgsubr
          hintmask 11010110
          -30 callgsubr
          11 -587 -83 callgsubr
          16 callgsubr
          hintmask 11101010
          -95 callsubr
        </CharString>
        <CharString name="gcommaaccent">
          -37 callgsubr
          102 91 hstemhm
          21 91 hintmask 11101100
          266 608 rmoveto
          88 hlineto
          16 91 rlineto
          -35 hlineto
          52 81 rlineto
          -47 hlineto
          -59 -88 rlineto
          79 -612 -83 callgsubr
          hintmask 11011100
          16 callgsubr
          hintmask 11101100
          -95 callsubr
        </CharString>
        <CharString name="gdotaccent">
          -37 callgsubr
          122 95 hstemhm
          21 91 hintmask 11101100
          298 -13 callsubr
          45 -9 callgsubr
          hintmask 11011100
          16 callgsubr
          hintmask 11101100
          -95 callsubr
        </CharString>
        <CharString name="germandbls">
          -72 0 74 276 73 239 73 hstemhm
          472 89 -57 91 hintmask 11110000
          178 hmoveto
          134 hlineto
          118 131 94 139 79 -45 56 -70 23 hvcurveto
          4 vlineto
          hintmask 11101000
          90 26 59 77 75 vvcurveto
          102 -88 60 -128 -137 -119 -63 -156 -27 vhcurveto
          -90 -516 rlineto
          88 hlineto
          91 518 rlineto
          95 17 71 49 102 hhcurveto
          85 44 -41 -63 -71 -76 -64 -82 hvcurveto
          -94 hlineto
          -13 -73 rlineto
          104 hlineto
          hintmask 11110000
          76 53 -49 -73 -83 -84 -71 -83 hvcurveto
          -114 hlineto
          endchar
        </CharString>
        <CharString name="grave">
          45 callgsubr
          86 160 vstem
          171 591 -86 callsubr
          endchar
        </CharString>
        <CharString name="greater">
          -99 4 500 hstem
          10 528 vstem
          10 4 21 callsubr
          endchar
        </CharString>
        <CharString name="greaterequal">
          -134 0 83 454 -20 hstem
          -17 549 vstem
          4 124 21 callsubr
          -38 -217 3 callsubr
        </CharString>
        <CharString name="guillemotleft">
          326 200 0 -20 hstemhm
          83 458 hintmask 01100000
          204 126 rmoveto
          71 hlineto
          hintmask 10100000
          5 callsubr
          316 -200 rmoveto
          71 hlineto
          5 callsubr
          endchar
        </CharString>
        <CharString name="guillemotright">
          326 200 0 -20 hstemhm
          19 459 hintmask 01100000
          19 126 rmoveto
          79 hlineto
          hintmask 10100000
          5 callgsubr
          30 -200 rmoveto
          79 hlineto
          5 callgsubr
          endchar
        </CharString>
        <CharString name="guilsinglleft">
          -350 526 -20 hstem
          55 263 vstem
          176 126 rmoveto
          71 hlineto
          5 callsubr
          endchar
        </CharString>
        <CharString name="guilsinglright">
          -350 526 -20 hstem
          19 264 vstem
          19 126 rmoveto
          79 hlineto
          5 callgsubr
          endchar
        </CharString>
        <CharString name="h">
          21 42 callsubr
          hstem
          415 91 vstem
          183 467 rmoveto
          45 256 66 callgsubr
          53 301 rlineto
          -81 callgsubr
          -60 -343 rlineto
          -78 callsubr
          -59 -62 -29 -42 -41 vhcurveto
          endchar
        </CharString>
        <CharString name="hbar">
          21 -21 465 73 58 62 -62 127 hstemhm
          415 91 hintmask 00000000
          hintmask 11101000
          216 658 rmoveto
          hintmask 11011000
          12 65 -69 callgsubr
          hintmask 11101000
          -12 -65 rlineto
          -66 hlineto
          hintmask 11011000
          -11 -62 rlineto
          66 hlineto
          -104 -596 44 callsubr
          -81 callgsubr
          -60 -343 rlineto
          -78 callsubr
          -59 -62 -29 -42 -41 vhcurveto
          -4 hlineto
          22 129 rlineto
          140 hlineto
          hintmask 11101000
          11 62 rlineto
          endchar
        </CharString>
        <CharString name="hcircumflex">
          21 42 callsubr
          45 135 hstemhm
          415 91 hintmask 00000000
          hintmask 11111000
          245 748 -104 callgsubr
          -30 callgsubr
          -19 -360 rmoveto
          hintmask 11101000
          45 256 66 callgsubr
          53 301 rlineto
          -81 callgsubr
          -60 -343 rlineto
          -78 callsubr
          vhcurveto
          hintmask 11111000
          -59 -62 -29 -42 -41 hvcurveto
          endchar
        </CharString>
        <CharString name="hookabovecomb">
          -683 591 67 callgsubr
          -86 74 vstem
          -131 652 rmoveto
          -11 -61 rlineto
          -10 callsubr
          endchar
        </CharString>
        <CharString name="house">
          -79 0 40 hstem
          77 39 372 39 vstem
          77 hmoveto
          450 310 hlineto
          -225 253 -225 -253 rlineto
          411 -17 rmoveto
          -253 -372 253 vlineto
          186 208 rlineto
          endchar
        </CharString>
        <CharString name="hungarumlaut">
          45 callgsubr
          15 330 vstem
          15 591 -56 callgsubr
          endchar
        </CharString>
        <CharString name="hyphen">
          12 callgsubr
        </CharString>
        <CharString name="i">
          -461 21 28 callgsubr
          119 98 hstem
          13 215 9 callsubr
          endchar
        </CharString>
        <CharString name="i.loclTRK">
          -32 callgsubr
          122 95 hstem
          35 215 vstem
          146 -13 callsubr
          -128 -24 callgsubr
        </CharString>
        <CharString name="iacute">
          -405 21 19 callgsubr
          hstem
          35 306 vstem
          131 591 25 callsubr
          -205 -24 callgsubr
        </CharString>
        <CharString name="iacute_j.loclNLD">
          -183 41 callgsubr
          85 132 hstem
          35 571 vstem
          140 591 -97 callgsubr
          148 -132 -97 callgsubr
          -469 31 callgsubr
          53 -639 -80 callgsubr
        </CharString>
        <CharString name="ibreve">
          -32 callgsubr
          100 50 callsubr
          hstemhm
          35 302 hintmask 11011000
          337 723 rmoveto
          -61 hlineto
          hintmask 11101000
          -53 callsubr
          hintmask 11011000
          -99 callsubr
          -302 -24 callgsubr
        </CharString>
        <CharString name="icircumflex">
          -32 callgsubr
          82 135 -56 56 hstemhm
          27 295 hintmask 11101000
          236 -84 callgsubr
          hintmask 11011000
          -30 callgsubr
          -158 -667 -59 callgsubr
        </CharString>
        <CharString name="idieresis">
          -32 callgsubr
          122 95 hstem
          35 302 vstem
          46 -68 callgsubr
          -215 -24 callgsubr
        </CharString>
        <CharString name="igrave">
          -405 21 19 callgsubr
          hstem
          35 186 vstem
          146 591 -86 callsubr
          -26 -720 -59 callgsubr
        </CharString>
        <CharString name="ij">
          -239 41 callgsubr
          119 98 hstem
          13 437 vstem
          123 625 -33 callsubr
          205 -98 -33 callsubr
          -349 31 callgsubr
          19 -639 -80 callgsubr
        </CharString>
        <CharString name="imacron">
          -32 callgsubr
          133 72 hstem
          31 318 vstem
          31 639 -73 callsubr
          -9 -711 -59 callgsubr
        </CharString>
        <CharString name="infinity">
          30 142 72 163 76 hstem
          43 75 473 76 vstem
          345 238 rmoveto
          -51 35 44 -45 76 hhcurveto
          97 70 86 99 71 -44 55 -79 -70 -57 -46 -51 -51 hvcurveto
          51 -36 -44 46 -74 hhcurveto
          -96 -73 -87 -98 -72 43 -54 80 70 57 45 51 52 hvcurveto
          -37 59 rmoveto
          -46 -44 -40 -37 -45 hhcurveto
          -35 -26 28 37 52 47 46 44 44 28 -36 -44 27 hvcurveto
          93 hmoveto
          44 44 41 36 45 hhcurveto
          35 25 -29 -37 -52 -44 -45 -44 -45 -29 37 46 -28 hvcurveto
          endchar
        </CharString>
        <CharString name="integral">
          -409 -141 50 901 49 hstem
          -55 392 vstem
          -46 -91 rmoveto
          -9 -50 rlineto
          109 50 17 95 17 hvcurveto
          27 153 83 629 0 vvcurveto
          43 8 40 14 49 hhcurveto
          9 49 rlineto
          -109 -53 -18 -94 -16 hvcurveto
          -27 -154 -84 -626 0 vvcurveto
          -44 -7 -39 -14 -48 hhcurveto
          endchar
        </CharString>
        <CharString name="integralbt">
          -79 -250 49 hstem
          89 339 vstem
          97 -201 rmoveto
          -8 -49 rlineto
          103 57 18 94 17 hvcurveto
          14 80 78 477 70 440 rrcurveto
          -74 hlineto
          -160 -1003 rlineto
          -43 -7 -41 -14 -49 hhcurveto
          endchar
        </CharString>
        <CharString name="integraltp">
          -79 810 49 hstem
          175 339 vstem
          175 -250 rmoveto
          74 hlineto
          160 1003 rlineto
          43 7 41 14 49 hhcurveto
          8 49 rlineto
          -103 -57 -18 -94 -17 hvcurveto
          -14 -80 -78 -477 -70 -440 rrcurveto
          endchar
        </CharString>
        <CharString name="intersection">
          36 21 -21 604 72 hstem
          580 74 vstem
          505 hmoveto
          73 hlineto
          72 410 rlineto
          3 16 1 15 16 vvcurveto
          124 -96 95 -137 -142 -134 -119 -147 -26 vhcurveto
          -72 -410 rlineto
          73 hlineto
          72 411 rlineto
          106 19 104 87 109 hhcurveto
          90 66 -69 -91 -11 -1 -11 -2 -11 hvcurveto
          endchar
        </CharString>
        <CharString name="iogonek">
          -461 -182 65 643 -20 119 98 hstem
          -47 83 vstem
          123 625 -33 callsubr
          -37 -891 rmoveto
          53 callgsubr
          24 23 19 42 46 9 hvcurveto
          -76 callsubr
          -93 -526 rlineto
          -32 -22 -28 -35 -49 vvcurveto
          -57 43 -19 44 20 21 5 9 22 vhcurveto
          endchar
        </CharString>
        <CharString name="itilde">
          -32 callgsubr
          113 28 callsubr
          17 345 hintmask 11011000
          362 723 -69 callsubr
          -327 -24 callgsubr
        </CharString>
        <CharString name="j">
          -461 -182 69 639 -20 119 98 hstem
          -107 335 vstem
          123 625 -33 callsubr
          -237 -836 -80 callgsubr
        </CharString>
        <CharString name="jcircumflex">
          -461 -182 69 639 -20 82 135 -56 56 hstemhm
          -107 407 hintmask 11101000
          214 -84 callgsubr
          hintmask 11011000
          -30 callgsubr
          -268 -780 -80 callgsubr
        </CharString>
        <CharString name="k">
          -183 21 -25 callsubr
          endchar
        </CharString>
        <CharString name="kcommaaccent">
          -183 -149 91 79 -25 callsubr
          -108 -489 -78 callgsubr
        </CharString>
        <CharString name="kgreenlandic">
          -183 21 28 callgsubr
          hstem
          13 513 vstem
          346 hmoveto
          97 hlineto
          -135 319 218 207 rlineto
          -109 hlineto
          -268 -253 44 253 -69 callgsubr
          -92 -526 rlineto
          88 hlineto
          29 165 116 94 rlineto
          endchar
        </CharString>
        <CharString name="l">
          61 callsubr
          hstem
          13 215 vstem
          13 hmoveto
          88 hlineto
          -29 callgsubr
          endchar
        </CharString>
        <CharString name="lacute">
          61 callsubr
          48 132 hstemhm
          13 346 hintmask 00000000
          hintmask 11110000
          149 751 -97 callgsubr
          -244 -883 rmoveto
          88 hlineto
          hintmask 11010000
          -29 callgsubr
          endchar
        </CharString>
        <CharString name="lcaron">
          -391 21 -21 490 196 -91 91 -91 128 hstemhm
          13 354 hintmask 10101000
          13 hmoveto
          88 hlineto
          hintmask 10011000
          -29 callgsubr
          hintmask 11001000
          105 -233 rmoveto
          46 hlineto
          hintmask 10101000
          -19 callsubr
          32 hlineto
          endchar
        </CharString>
        <CharString name="lcommaaccent">
          -461 -149 91 79 -21 723 -20 hstem
          -29 257 vstem
          13 hmoveto
          88 hlineto
          -29 callgsubr
          -169 -953 -78 callgsubr
        </CharString>
        <CharString name="ldot">
          -400 21 -21 303 108 312 -20 hstem
          13 312 vstem
          13 hmoveto
          88 hlineto
          -29 callgsubr
          66 -420 -42 callgsubr
          endchar
        </CharString>
        <CharString name="less">
          -99 4 500 hstem
          45 528 vstem
          45 200 22 callgsubr
          endchar
        </CharString>
        <CharString name="lessequal">
          -134 0 83 hstem
          -17 583 vstem
          38 320 22 callgsubr
          -74 -427 3 callsubr
        </CharString>
        <CharString name="lira">
          0 79 124 72 76 72 202 73 hstem
          471 89 vstem
          57 423 rmoveto
          -13 -72 rlineto
          85 hlineto
          -14 -76 rlineto
          -85 hlineto
          -11 -72 rlineto
          84 hlineto
          -22 -124 rlineto
          -75 hlineto
          -14 -79 rlineto
          475 hlineto
          14 79 rlineto
          -325 hlineto
          33 124 rlineto
          167 hlineto
          12 72 rlineto
          -166 hlineto
          14 76 rlineto
          166 hlineto
          13 72 rlineto
          -166 hlineto
          17 92 -12 callsubr
          -14 -76 rlineto
          endchar
        </CharString>
        <CharString name="logicalnot">
          -99 360 93 hstem
          62 489 vstem
          422 197 rmoveto
          84 hlineto
          45 256 rlineto
          -473 hlineto
          -16 -93 rlineto
          389 hlineto
          endchar
        </CharString>
        <CharString name="longs">
          -405 -182 73 562 73 132 73 hstem
          -101 446 vstem
          32 453 rmoveto
          77 hlineto
          -91 -514 64 callsubr
          -32 hhcurveto
          -52 hlineto
          -11 -61 rlineto
          -7 17 29 -5 27 hhcurveto
          98 25 61 60 11 hvcurveto
          119 671 -50 callgsubr
          endchar
        </CharString>
        <CharString name="lozenge">
          -83 -132 72 715 72 0 -20 hstemhm
          60 464 hintmask 10110000
          422 727 rmoveto
          -107 hlineto
          -255 -429 103 -430 rlineto
          107 hlineto
          254 430 rlineto
          -298 -358 rmoveto
          -78 351 rlineto
          hintmask 11010000
          210 364 78 -350 rlineto
          endchar
        </CharString>
        <CharString name="lslash">
          61 callsubr
          hstem
          -9 266 vstem
          17 hmoveto
          88 hlineto
          63 356 75 55 14 77 -76 -55 51 290 -69 callgsubr
          -64 -363 -76 -56 -13 -77 76 56 rlineto
          endchar
        </CharString>
        <CharString name="m">
          150 19 callsubr
          hstemhm
          106 64 525 91 hintmask 11011000
          627 hmoveto
          88 hlineto
          67 379 rlineto
          3 16 1 15 14 vvcurveto
          83 -55 31 -84 -61 -64 -28 -55 -45 vhcurveto
          -6 hlineto
          59 -14 -49 24 -66 hhcurveto
          -63 -57 -26 -57 -45 hvcurveto
          -7 hlineto
          hintmask 10111000
          71 -64 vlineto
          -93 -526 rlineto
          88 hlineto
          53 303 rlineto
          hintmask 11011000
          102 18 75 60 71 hhcurveto
          40 29 -15 -55 -9 -1 -11 -2 -12 hvcurveto
          -64 -363 rlineto
          88 hlineto
          53 303 rlineto
          102 18 72 60 72 hhcurveto
          40 32 -15 -56 -9 -2 -10 -2 -12 hvcurveto
          endchar
        </CharString>
        <CharString name="macron">
          -350 627 72 hstem
          6 318 vstem
          6 627 -73 callsubr
          endchar
        </CharString>
        <CharString name="minus">
          -99 214 83 hstem
          48 487 vstem
          48 214 3 callsubr
        </CharString>
        <CharString name="minute">
          -496 515 171 hstem
          76 163 vstem
          76 515 38 callsubr
          endchar
        </CharString>
        <CharString name="mu">
          -52 callgsubr
        </CharString>
        <CharString name="multiply">
          -99 43 426 hstem
          52 477 vstem
          284 196 rmoveto
          124 -150 64 56 -125 149 182 154 -51 64 -182 -154 -122 149 -64 -56 123 -149 -181 -152 51 -64 rlineto
          endchar
        </CharString>
        <CharString name="n">
          19 callsubr
          0 callgsubr
          hintmask 11011000
          350 hmoveto
          -75 callgsubr
          hintmask 10111000
          -60 callsubr
          hintmask 11011000
          -81 callgsubr
          endchar
        </CharString>
        <CharString name="nacute">
          19 callsubr
          85 132 0 callgsubr
          hintmask 11011100
          292 591 -97 callgsubr
          -50 -723 -79 callsubr
        </CharString>
        <CharString name="nacute.loclPLK">
          19 callsubr
          85 132 0 callgsubr
          hintmask 11011100
          286 591 -55 callsubr
          18 -723 -79 callsubr
        </CharString>
        <CharString name="napostrophe">
          -79 21 -21 465 73 -48 196 -160 -20 89 91 hstemhm
          154 64 245 91 hintmask 00000000
          hintmask 10100110
          30 490 rmoveto
          45 hlineto
          hintmask 11001110
          -19 callsubr
          32 hlineto
          316 -595 rmoveto
          -75 callgsubr
          hintmask 10011110
          -60 callsubr
          hintmask 11001110
          -81 callgsubr
          endchar
        </CharString>
        <CharString name="ncaron">
          19 callsubr
          82 135 0 callgsubr
          hintmask 11011100
          297 723 -100 callsubr
          8 -644 -79 callsubr
        </CharString>
        <CharString name="ncommaaccent">
          -149 91 79 -4 callgsubr
          0 callgsubr
          hintmask 11101100
          350 hmoveto
          -75 callgsubr
          hintmask 11011100
          -60 callsubr
          hintmask 11101100
          -81 callgsubr
          -264 -573 -78 callgsubr
        </CharString>
        <CharString name="nine">
          -12 73 184 72 308 73 hstemhm
          39 92 -67 93 296 89 hintmask 00000000
          hintmask 11110100
          134 201 rmoveto
          -90 hlineto
          -3 -18 -2 -18 -17 vvcurveto
          -94 55 -66 131 157 101 95 280 47 vhcurveto
          8 47 4 41 35 vvcurveto
          158 -81 54 -134 vhcurveto
          hintmask 11101100
          -140 -123 -107 -164 -106 60 -76 133 66 64 26 45 45 hvcurveto
          hintmask 11110100
          -157 -31 -50 -98 -123 hhcurveto
          -66 -31 36 65 12 1 13 2 14 hvcurveto
          hintmask 11101100
          197 424 rmoveto
          84 38 -50 -74 -98 -68 -86 -113 -83 -32 52 70 93 64 93 110 hvcurveto
          endchar
        </CharString>
        <CharString name="notequal">
          -134 106 83 129 84 hstem
          11 526 vstem
          204 106 rmoveto
          280 -64 callgsubr
          -236 hlineto
          92 129 rlineto
          167 hlineto
          15 84 rlineto
          -122 hlineto
          58 82 rlineto
          -72 hlineto
          -58 -82 rlineto
          -279 hlineto
          -15 -84 rlineto
          234 hlineto
          -92 -129 rlineto
          -165 hlineto
          -15 -83 rlineto
          121 hlineto
          -57 -81 rlineto
          72 hlineto
          endchar
        </CharString>
        <CharString name="ntilde">
          19 callsubr
          113 73 -42 73 0 callgsubr
          hintmask 11001110
          522 723 rmoveto
          0 callsubr
          50 37 -31 56 hhcurveto
          60 34 48 56 10 hvcurveto
          -172 4 callsubr
          hintmask 10101110
          -60 callsubr
          hintmask 11001110
          -81 callgsubr
          endchar
        </CharString>
        <CharString name="numbersign">
          9 -21 191 76 155 76 212 -20 hstem
          10 533 vstem
          278 -12 rmoveto
          77 hlineto
          42 191 rlineto
          101 76 -85 hlineto
          34 155 rlineto
          96 76 -79 58 callgsubr
          -153 58 callgsubr
          -102 -76 85 hlineto
          -34 -155 rlineto
          -96 -76 80 hlineto
          -42 -191 rlineto
          77 hlineto
          42 191 rlineto
          153 hlineto
          50 231 rmoveto
          -34 -155 rlineto
          -153 hlineto
          34 155 rlineto
          endchar
        </CharString>
        <CharString name="o">
          -32 callsubr
          hstem
          -41 callgsubr
          vstem
          236 -12 -107 callsubr
          endchar
        </CharString>
        <CharString name="oacute">
          -32 callsubr
          53 132 hstem
          -41 callgsubr
          vstem
          270 591 -97 callgsubr
          -142 -735 -107 callsubr
          endchar
        </CharString>
        <CharString name="oacute.loclPLK">
          -32 callsubr
          53 132 hstem
          -41 callgsubr
          vstem
          264 591 -55 callsubr
          -74 -735 -107 callsubr
          endchar
        </CharString>
        <CharString name="obreve">
          -32 callsubr
          68 50 callsubr
          16 callsubr
          hintmask 11011100
          473 723 rmoveto
          -61 hlineto
          hintmask 11101100
          -53 callsubr
          hintmask 11011100
          -99 callsubr
          -237 -735 -107 callsubr
          endchar
        </CharString>
        <CharString name="ocircumflex">
          -32 callsubr
          50 135 -56 56 16 callsubr
          hintmask 11101100
          370 -84 callgsubr
          hintmask 11011100
          -30 callgsubr
          -91 -679 -107 callsubr
          endchar
        </CharString>
        <CharString name="odieresis">
          -32 callsubr
          90 95 hstem
          -41 callgsubr
          vstem
          183 -68 callgsubr
          -151 -735 -107 callsubr
          endchar
        </CharString>
        <CharString name="oe">
          261 -65 callsubr
          hstem
          21 92 311 82 311 89 vstem
          648 -12 rmoveto
          113 98 63 128 21 hvcurveto
          34 callsubr
          381 hlineto
          8 44 rlineto
          5 27 3 24 23 vvcurveto
          119 -74 62 -132 -94 -68 -38 -59 -46 vhcurveto
          66 -33 -66 31 -96 hhcurveto
          -205 -71 -179 -174 -134 75 -63 144 92 65 39 60 44 hvcurveto
          -67 34 69 -32 104 hhcurveto
          -405 73 15 callgsubr
          570 251 22 callsubr
        </CharString>
        <CharString name="ogonek">
          -350 -182 65 -65 194 hstemhm
          77 85 hintmask 10100000
          229 -168 rmoveto
          27 callgsubr
          hvcurveto
          hintmask 01100000
          35 28 31 23 18 vhcurveto
          4 -59 vlineto
          hintmask 10100000
          -37 -27 -40 -35 -58 -7 callsubr
          endchar
        </CharString>
        <CharString name="ograve">
          -32 callsubr
          53 132 hstem
          -41 callgsubr
          vstem
          276 591 -86 callsubr
          45 -732 -107 callsubr
          endchar
        </CharString>
        <CharString name="ohorn">
          35 callsubr
          hstem
          -41 callgsubr
          vstem
          527 686 -102 callsubr
          endchar
        </CharString>
        <CharString name="ohungarumlaut">
          -32 callsubr
          53 132 hstem
          -41 callgsubr
          vstem
          202 591 -56 callgsubr
          -194 -735 -107 callsubr
          endchar
        </CharString>
        <CharString name="omacron">
          -32 callsubr
          101 72 hstem
          -41 callgsubr
          vstem
          176 639 -73 callsubr
          47 -723 -107 callsubr
          endchar
        </CharString>
        <CharString name="one">
          0 73 488 52 73 -20 hstem
          35 442 vstem
          35 hmoveto
          429 hlineto
          13 73 rlineto
          -164 hlineto
          108 613 rlineto
          -34 hlineto
          -76 -38 -108 -29 -61 -6 -9 -52 rcurveline
          178 hlineto
          -86 -488 rlineto
          -177 hlineto
          endchar
        </CharString>
        <CharString name="oneeighth">
          54 callgsubr
          -30 26 callsubr
          497 43 callgsubr
          hintmask 1101101011000000
          58 -12 -38 callgsubr
          -673 -370 7 callgsubr
          hintmask 1101110011000000
          -38 callsubr
          650 -205 rmoveto
          hintmask 1110101010100000
          -28 callsubr
          hintmask 1101101101000000
          -11 callsubr
          hintmask 1101110011000000
          57 callgsubr
          hintmask 1110101010100000
          -27 callgsubr
          hintmask 1101101101000000
          -35 callgsubr
        </CharString>
        <CharString name="onehalf">
          151 0 56 -47 -21 320 56 -36 26 callsubr
          530 31 callsubr
          hintmask 0000000000000000
          hintmask 0101101010000000
          58 -12 -38 callgsubr
          -664 -370 7 callgsubr
          hintmask 1001110010000000
          -38 callsubr
          409 -384 rmoveto
          252 hlineto
          10 56 rlineto
          -171 hlineto
          hintmask 1010101110000000
          -48 callsubr
          endchar
        </CharString>
        <CharString name="onequarter">
          55 callsubr
          26 callsubr
          54 751 hintmask 00000000
          hintmask 01011011
          54 -12 -38 callgsubr
          -664 -370 7 callgsubr
          hintmask 10011101
          -38 callsubr
          550 -384 rmoveto
          63 hlineto
          hintmask 00111011
          14 82 rlineto
          45 hlineto
          hintmask 10011011
          -4 callsubr
          hintmask 00111011
          49 callgsubr
        </CharString>
        <CharString name="ordfeminine">
          -313 362 58 257 58 -49 -20 61 -20 hstemhm
          55 70 149 62 hintmask 00000000
          hintmask 10111100
          393 727 rmoveto
          -54 hlineto
          -21 -41 rlineto
          -4 hlineto
          hintmask 11001100
          35 -15 -28 14 -45 hhcurveto
          -96 -75 -95 -148 -88 44 -42 68 40 42 22 42 22 hvcurveto
          5 hlineto
          -1 -6 -1 -4 -6 vvcurveto
          -34 25 -14 33 21 16 6 5 7 vhcurveto
          7 39 rlineto
          -27 hlineto
          -13 -7 5 13 hvcurveto
          hintmask 10111100
          9 57 288 0 vhcurveto
          hintmask 11001000
          -211 -307 rmoveto
          -39 -18 27 48 98 37 84 72 46 19 -27 -49 -51 -32 -130 -85 hvcurveto
          endchar
        </CharString>
        <CharString name="ordmasculine">
          -318 361 58 258 58 hstem
          60 70 195 70 vstem
          208 361 rmoveto
          139 48 121 118 92 -51 43 -97 -139 -48 -122 -118 -91 51 -43 97 hvcurveto
          2 58 rmoveto
          -53 -27 24 58 81 27 95 88 53 27 -25 -58 -82 -28 -93 -87 hvcurveto
          endchar
        </CharString>
        <CharString name="orthogonal">
          296 0 66 hstem
          141 637 vstem
          141 hmoveto
          625 hlineto
          12 66 rlineto
          -551 hlineto
          99 559 rlineto
          -74 hlineto
          endchar
        </CharString>
        <CharString name="oslash">
          -72 33 callsubr
          hstem
          45 92 311 92 vstem
          8 -49 -67 callsubr
        </CharString>
        <CharString name="oslashacute">
          -72 33 callsubr
          53 132 hstem
          45 92 311 92 vstem
          283 591 25 callsubr
          -384 -772 -67 callsubr
        </CharString>
        <CharString name="otilde">
          -32 callsubr
          81 73 -42 73 16 callsubr
          hintmask 11011100
          500 723 rmoveto
          -65 hlineto
          hintmask 11101100
          -98 callgsubr
          hintmask 11011100
          -93 callsubr
          -264 -735 -107 callsubr
          endchar
        </CharString>
        <CharString name="p">
          -152 -21 161 73 404 61 -61 73 hstemhm
          102 65 257 92 hintmask 00000000
          hintmask 11101100
          167 526 rmoveto
          -65 hlineto
          -123 -699 17 callgsubr
          hvcurveto
          hintmask 11011100
          146 -68 62 -110 -64 -59 -28 -55 -42 vhcurveto
          -6 hlineto
          146 10 10 callsubr
        </CharString>
        <CharString name="paragraph">
          -146 625 61 hstem
          44 553 vstem
          301 -168 rmoveto
          84 hlineto
          140 793 rlineto
          61 hlineto
          11 61 rlineto
          -286 hlineto
          -155 -112 -91 -173 -114 83 -55 98 hvcurveto
          -74 -421 rlineto
          84 hlineto
          140 793 rlineto
          66 hlineto
          endchar
        </CharString>
        <CharString name="parenleft">
          -350 735 -20 hstem
          51 92 vstem
          160 -157 rmoveto
          59 hlineto
          -46 92 -30 119 119 vvcurveto
          205 100 200 133 157 vhcurveto
          -59 hlineto
          -170 -150 -96 -192 -210 vvcurveto
          -126 37 -117 72 -97 vhcurveto
          endchar
        </CharString>
        <CharString name="parenright">
          -350 735 -20 hstem
          171 92 vstem
          -62 -157 rmoveto
          58 hlineto
          167 150 100 193 212 vvcurveto
          124 -38 118 -72 95 vhcurveto
          -59 hlineto
          46 -91 31 -117 -118 vvcurveto
          -201 -104 -208 -129 -157 vhcurveto
          endchar
        </CharString>
        <CharString name="partialdiff">
          -189 -12 73 321 67 217 69 hstem
          19 89 275 82 vstem
          368 380 rmoveto
          -4 hlineto
          26 -10 -34 43 -75 hhcurveto
          -99 -127 -116 -185 -90 46 -70 101 143 103 148 247 42 hvcurveto
          7 43 4 39 35 vvcurveto
          165 -85 70 -98 -47 -33 -13 -16 -29 vhcurveto
          -13 -74 rlineto
          18 28 35 16 46 hhcurveto
          78 36 -73 -104 -32 -4 -48 -11 -29 hvcurveto
          -22 -81 rmoveto
          -122 -30 -66 -116 -74 hhcurveto
          -44 -24 36 57 115 76 113 73 57 28 -46 -37 4 hvcurveto
          endchar
        </CharString>
        <CharString name="percent">
          206 -12 59 -26 -21 290 59 -12 59 243 59 -12 -20 hstemhm
          80 79 158 79 92 79 158 79 hintmask 1001101111000000
          220 337 14 callsubr
          hintmask 0101011111000000
          -127 -337 rmoveto
          87 hlineto
          617 686 -69 callgsubr
          -490 -290 rmoveto
          -41 -19 23 57 hvcurveto
          hintmask 1001101111000000
          75 23 88 73 43 19 -23 -58 vhcurveto
          hintmask 0101011111000000
          -76 -23 -86 -75 vhcurveto
          hintmask 1010101111000000
          409 -408 14 callsubr
          -1 59 rmoveto
          -41 -19 23 57 75 23 88 73 43 19 -23 -58 -76 -23 -86 -75 hvcurveto
          endchar
        </CharString>
        <CharString name="period">
          -405 0 108 hstem
          36 119 vstem
          36 hmoveto
          100 9 callgsubr
          -100 hlineto
          endchar
        </CharString>
        <CharString name="periodcentered">
          -350 303 108 hstem
          116 119 vstem
          116 303 -42 callgsubr
          endchar
        </CharString>
        <CharString name="perthousand">
          317 -12 58 -25 -21 285 58 -1 58 239 58 -11 -20 hstemhm
          41 74 148 74 4 74 148 74 30 74 148 74 hintmask 0000000000000000
          hintmask 0101101100000000
          172 342 rmoveto
          -13 callgsubr
          -119 -342 rmoveto
          78 hlineto
          hintmask 0001011100000000
          496 -29 callsubr
          -79 hlineto
          -377 -286 rmoveto
          -37 -19 23 56 hvcurveto
          hintmask 0000101100000000
          73 22 87 68 40 18 -23 -57 vhcurveto
          hintmask 0001011100000000
          -74 -21 -85 -71 vhcurveto
          hintmask 1010000011000000
          301 -412 rmoveto
          -13 callgsubr
          hintmask 1010000000110000
          326 hmoveto
          -13 callgsubr
          hintmask 1010000011000000
          -327 58 rmoveto
          38 callgsubr
          hintmask 1010000000110000
          326 hmoveto
          38 callgsubr
          endchar
        </CharString>
        <CharString name="peseta">
          411 -12 72 -71 72 -40 -21 54 7 202 83 107 73 -61 73 65 83 hstemhm
          420 97 -41 91 63 88 -33 95 149 96 -61 90 hintmask 0000000000000000
          hintmask 1000101110010100
          961 375 -63 callsubr
          3 7 4 22 14 vvcurveto
          67 -52 53 -108 vhcurveto
          hintmask 0010110110011000
          -31 -29 -4 -8 -26 hvcurveto
          -166 hlineto
          34 145 rlineto
          -94 hlineto
          -27 -145 rlineto
          -38 hlineto
          96 -62 64 -128 vhcurveto
          -187 -5 callgsubr
          46 263 rlineto
          112 hlineto
          hintmask 0100110101011000
          117 90 75 115 29 hvcurveto
          33 hlineto
          -62 -353 rlineto
          -2 -10 -1 -9 -9 vvcurveto
          -45 22 -38 65 24 30 6 8 19 vhcurveto
          hintmask 0001110110011000
          9 51 rlineto
          hintmask 1000101110011000
          -39 22 51 -27 91 hhcurveto
          110 106 56 128 hvcurveto
          161 -245 -48 98 vvcurveto
          27 18 55 88 vhcurveto
          hintmask 1000101110010100
          58 20 -30 -35 -5 0 -6 -3 -14 hvcurveto
          hintmask 1000110110011000
          -689 -29 rmoveto
          -97 hlineto
          45 257 rlineto
          97 hlineto
          69 34 -34 -60 -100 -66 -63 -82 hvcurveto
          hintmask 0100110101101000
          370 -285 rmoveto
          -38 hlineto
          -26 -11 11 23 4 0 4 1 5 hvcurveto
          hintmask 1000110110011000
          61 345 rlineto
          85 hlineto
          -16 -24 -13 -32 -29 -154 244 51 -112 vvcurveto
          -61 -57 -32 -60 vhcurveto
          hintmask 1000110110101000
          -54 -40 22 53 6 1 6 3 17 hvcurveto
          -84 hlineto
          hintmask 0100110110101000
          0 -8 -29 -22 vvcurveto
          hintmask 0100110101101000
          -18 4 -18 8 -16 vhcurveto
          endchar
        </CharString>
        <CharString name="pi">
          7 21 -21 453 73 hstem
          430 88 vstem
          435 hmoveto
          86 hlineto
          -2 9 -1 11 13 vvcurveto
          28 5 39 10 56 vhcurveto
          52 297 rlineto
          97 hlineto
          23 73 rlineto
          -455 hlineto
          -96 -58 -11 -19 -31 hvcurveto
          5 -56 rlineto
          9 27 38 4 70 hhcurveto
          -26 -129 -73 -218 -61 -106 rrcurveto
          92 hlineto
          56 89 74 235 32 129 rrcurveto
          197 hlineto
          -54 -306 rlineto
          -8 -48 -4 -37 -26 vvcurveto
          -17 2 -13 3 -6 vhcurveto
          endchar
        </CharString>
        <CharString name="plus">
          -99 21 -21 213 84 hstem
          48 487 vstem
          202 hmoveto
          87 hlineto
          38 -3 callgsubr
          endchar
        </CharString>
        <CharString name="plusminus">
          -134 0 83 257 84 hstem
          -18 547 vstem
          197 127 rmoveto
          87 hlineto
          37 -3 callgsubr
          -252 -340 3 callsubr
        </CharString>
        <CharString name="product">
          140 643 80 hstem
          64 793 vstem
          511 -128 rmoveto
          94 hlineto
          136 771 rlineto
          101 hlineto
          15 80 rlineto
          -741 hlineto
          -15 -80 rlineto
          99 hlineto
          -136 -771 rlineto
          95 hlineto
          136 771 rlineto
          352 hlineto
          endchar
        </CharString>
        <CharString name="q">
          -152 -21 161 -48 callgsubr
          hstemhm
          21 91 hintmask 00000000
          hintmask 11011000
          526 526 rmoveto
          -66 hlineto
          hintmask 11101000
          -23 -71 rlineto
          -6 hlineto
          55 -28 -58 28 -73 hhcurveto
          -149 -102 -144 -215 -132 64 -59 102 70 52 27 45 41 hvcurveto
          6 hlineto
          -41 -233 rlineto
          88 hlineto
          -112 638 rmoveto
          76 32 -47 -86 -135 -60 -136 -119 -74 -34 33 88 155 58 128 121 hvcurveto
          endchar
        </CharString>
        <CharString name="question">
          0 108 513 77 hstem
          74 89 273 94 vstem
          202 180 rmoveto
          87 hlineto
          7 41 rlineto
          18 106 216 13 205 vvcurveto
          95 -75 58 -113 -172 -92 -112 -127 -4 vhcurveto
          89 hlineto
          13 7 149 166 84 16 -51 -39 vhcurveto
          -1 -145 -198 -10 -25 -140 rrcurveto
          -45 -236 -42 callgsubr
          endchar
        </CharString>
        <CharString name="questiondown">
          -72 -172 77 513 108 hstem
          52 94 273 89 vstem
          415 526 rmoveto
          -100 hlineto
          -19 -108 rlineto
          100 hlineto
          -16 -72 rmoveto
          -87 hlineto
          -7 -41 rlineto
          -18 -106 -216 -13 -205 vvcurveto
          -95 75 -58 113 172 92 112 127 4 vhcurveto
          -89 hlineto
          -13 -7 -149 -166 -84 -16 51 39 vhcurveto
          1 145 198 10 25 140 rrcurveto
          endchar
        </CharString>
        <CharString name="quotedbl">
          -328 408 278 hstemhm
          82 51 111 51 hintmask 00000000
          hintmask 11100000
          82 408 2 callgsubr
          162 -132 2 callgsubr
          endchar
        </CharString>
        <CharString name="quotedblbase">
          -350 0 108 hstem
          12 296 vstem
          12 -134 -34 callsubr
          89 -134 -34 callsubr
          endchar
        </CharString>
        <CharString name="quotedblleft">
          -350 444 108 134 -20 hstem
          45 295 vstem
          45 444 -8 callsubr
          134 -99 -8 callsubr
          endchar
        </CharString>
        <CharString name="quotedblright">
          -350 578 108 hstem
          78 295 24 callgsubr
          88 -134 rmoveto
          52 hlineto
          73 143 18 99 rlineto
          -100 hlineto
          -19 -108 rlineto
          40 hlineto
          endchar
        </CharString>
        <CharString name="quoteleft">
          -461 444 108 134 -20 hstem
          86 143 vstem
          86 444 -8 callsubr
          endchar
        </CharString>
        <CharString name="quotereversed">
          -461 578 108 hstem
          69 118 vstem
          94 454 rmoveto
          52 hlineto
          -18 124 rlineto
          40 9 callgsubr
          -100 hlineto
          -18 -99 rlineto
          endchar
        </CharString>
        <CharString name="quoteright">
          -461 578 108 hstem
          78 143 24 callgsubr
          endchar
        </CharString>
        <CharString name="quotesinglbase">
          -461 0 108 hstem
          12 143 vstem
          12 -134 -34 callsubr
          endchar
        </CharString>
        <CharString name="quotesingle">
          -492 686 -20 hstem
          82 51 vstem
          82 408 2 callgsubr
          endchar
        </CharString>
        <CharString name="r">
          -7 callgsubr
          hstemhm
          13 348 hintmask 11001000
          13 hmoveto
          -5 callsubr
          106 19 69 38 67 hhcurveto
          37 hlineto
          hintmask 10011000
          15 85 rlineto
          hintmask 11001000
          0 -18 8 -28 -72 -43 -47 -44 -25 vhcurveto
          -6 hlineto
          hintmask 10101000
          4 79 rlineto
          -67 hlineto
          endchar
        </CharString>
        <CharString name="racute">
          -7 callgsubr
          81 132 hstemhm
          13 378 hintmask 11001100
          181 591 -97 callgsubr
          -276 -723 -70 callsubr
        </CharString>
        <CharString name="radical">
          -134 -148 1005 hstem
          24 612 vstem
          207 -148 rmoveto
          90 hlineto
          339 1005 rlineto
          -71 hlineto
          -293 -887 -2 21 -1 25 -5 28 rlinecurve
          -22 116 -24 115 -20 116 -174 -68 rcurveline
          9 -60 83 30 30 -147 30 -147 31 -147 rlinecurve
          endchar
        </CharString>
        <CharString name="rcaron">
          -7 callgsubr
          78 135 hstemhm
          13 382 hintmask 11001100
          186 723 -100 callsubr
          -218 -644 -70 callsubr
        </CharString>
        <CharString name="rcommaaccent">
          -350 -149 91 79 4 callgsubr
          hstemhm
          -29 390 -17 callsubr
          -135 -756 -78 callgsubr
        </CharString>
        <CharString name="registered">
          54 -12 47 263 56 139 56 102 47 hstem
          13 49 162 68 179 69 134 -46 callsubr
          115 103 rmoveto
          72 hlineto
          -87 171 rlineto
          48 19 24 43 55 vvcurveto
          72 -42 51 -84 vhcurveto
          -190 -411 68 160 111 hlineto
          1 56 rmoveto
          -112 139 112 hlineto
          43 24 -23 -44 -46 -27 -26 -40 hvcurveto
          endchar
        </CharString>
        <CharString name="revlogicalnot">
          -99 360 93 hstem
          42 518 vstem
          155 360 rmoveto
          389 hlineto
          16 93 rlineto
          -473 hlineto
          -45 -256 rlineto
          84 hlineto
          endchar
        </CharString>
        <CharString name="ring">
          -350 566 45 102 45 hstem
          70 46 103 46 vstem
          265 678 -79 callgsubr
          endchar
        </CharString>
        <CharString name="s">
          44 callgsubr
          -22 callsubr
          hintmask 00000000
          hintmask 11010100
          374 375 -56 callsubr
          hintmask 11011000
          -158 283 53 -116 vvcurveto
          -56 -64 -31 -73 vhcurveto
          hintmask 11101000
          -65 -49 23 54 6 1 5 1 6 hvcurveto
          2 10 rlineto
          -87 hlineto
          0 -7 -24 -22 vvcurveto
          -69 59 -61 152 117 108 55 128 vhcurveto
          hintmask 11011000
          167 -284 -51 101 vvcurveto
          27 21 50 105 vhcurveto
          hintmask 11010100
          56 callsubr
        </CharString>
        <CharString name="sacute">
          44 callgsubr
          53 132 -22 callsubr
          hintmask 11101100
          264 591 -97 callgsubr
          hintmask 11101010
          2 -348 -94 callgsubr
          endchar
        </CharString>
        <CharString name="sacute.loclPLK">
          44 callgsubr
          53 132 -22 callsubr
          hintmask 11101100
          258 591 -55 callsubr
          hintmask 11101010
          70 -348 -94 callgsubr
          endchar
        </CharString>
        <CharString name="scaron">
          44 callgsubr
          50 135 -22 callsubr
          hintmask 11101100
          269 723 -100 callsubr
          hintmask 11101010
          60 -269 -94 callgsubr
          endchar
        </CharString>
        <CharString name="scedilla">
          -183 42 callgsubr
          26 70 405 73 hstemhm
          1 90 -32 94 77 73 39 95 -60 90 hintmask 0000000000000000
          hintmask 1011101110000000
          144 -77 rmoveto
          -40 callsubr
          hintmask 0101101110000000
          -9 -49 rlineto
          hintmask 1011101110000000
          -47 callgsubr
          9 25 rlineto
          110 5 97 55 122 167 -284 -51 101 vvcurveto
          27 21 50 105 vhcurveto
          hintmask 1001101101000000
          74 24 -31 -36 -5 0 -4 -1 -5 hvcurveto
          -2 -9 rlineto
          -61 callgsubr
          hintmask 1001101110000000
          -158 283 53 -116 vvcurveto
          -56 -64 -31 -73 vhcurveto
          hintmask 1001110110000000
          -65 -49 23 54 6 1 5 1 6 hvcurveto
          2 10 rlineto
          -87 hlineto
          0 -7 -24 -22 vvcurveto
          -62 47 -56 120 -10 vhcurveto
          endchar
        </CharString>
        <CharString name="scircumflex">
          44 callgsubr
          50 135 -56 56 -22 callsubr
          hintmask 11100110
          364 -84 callgsubr
          hintmask 11010101
          -30 callgsubr
          53 -292 -56 callsubr
          hintmask 11100110
          -158 283 53 -116 vvcurveto
          -56 -64 -31 -73 vhcurveto
          hintmask 11101010
          -65 -49 23 54 6 1 5 1 6 hvcurveto
          2 10 rlineto
          -87 hlineto
          0 -7 -24 -22 vvcurveto
          -69 59 -61 152 117 108 55 128 vhcurveto
          hintmask 11100110
          167 -284 -51 101 vvcurveto
          27 21 50 105 vhcurveto
          hintmask 11100101
          56 callsubr
        </CharString>
        <CharString name="scommaaccent">
          -183 -149 91 46 72 405 73 -22 callsubr
          hintmask 00000000
          hintmask 11101010
          374 375 -94 callgsubr
          -258 -614 -78 callgsubr
        </CharString>
        <CharString name="second">
          -329 515 171 hstem
          76 309 vstem
          76 515 38 callsubr
          87 -171 38 callsubr
          endchar
        </CharString>
        <CharString name="section">
          -182 72 736 72 hstemhm
          2 96 -55 93 -31 95 155 95 -31 92 -54 96 hintmask 00000000
          hintmask 11100100
          101 -19 rmoveto
          -92 hlineto
          -3 -6 -4 -20 -12 vvcurveto
          -70 65 -55 134 153 96 69 109 50 -27 32 -36 26 vhcurveto
          hintmask 11001010
          63 28 61 52 79 176 -311 -24 120 vvcurveto
          17 8 74 136 vhcurveto
          hintmask 11001001
          86 27 -33 -36 -4 0 -5 -3 -13 hvcurveto
          92 hlineto
          3 6 4 20 13 vvcurveto
          69 -66 55 -133 -155 -94 -69 -111 -49 26 -33 36 -25 vhcurveto
          hintmask 11010100
          -62 -27 -62 -52 -79 -176 312 24 -121 vvcurveto
          -14 -7 -76 -137 vhcurveto
          hintmask 11100100
          -86 -27 32 37 4 0 4 3 14 hvcurveto
          hintmask 11010010
          123 398 rmoveto
          92 -38 103 -25 -79 vvcurveto
          -48 -34 -33 -55 -20 vhcurveto
          -91 39 -103 24 80 vvcurveto
          47 32 34 56 19 vhcurveto
          endchar
        </CharString>
        <CharString name="semicolon">
          -405 0 108 310 108 hstem
          12 217 vstem
          110 418 -42 callgsubr
          -117 -660 -34 callsubr
          endchar
        </CharString>
        <CharString name="seven">
          21 -21 602 84 hstem
          90 501 vstem
          91 hmoveto
          102 hlineto
          39 273 188 204 162 156 9 53 rcurveline
          -486 hlineto
          -15 -84 rlineto
          353 hlineto
          -134 -144 -176 -221 -42 -237 rrcurveto
          endchar
        </CharString>
        <CharString name="seveneighths">
          54 callgsubr
          272 56 12 -20 hstemhm
          473 43 callgsubr
          hintmask 1111001100000000
          20 -12 rmoveto
          80 hlineto
          hintmask 1110101100000000
          671 710 rlineto
          -80 hlineto
          -569 -370 rmoveto
          71 hlineto
          hintmask 1111001100000000
          15 129 87 102 90 85 7 42 rcurveline
          -260 hlineto
          -10 -56 rlineto
          179 hlineto
          hintmask 1110101100000000
          -72 -74 -85 -104 -22 -124 rrcurveto
          hintmask 1111001100000000
          570 -149 rmoveto
          hintmask 1111001010000000
          -28 callsubr
          hintmask 1111010100000000
          -11 callsubr
          hintmask 1111001100000000
          57 callgsubr
          hintmask 1111001010000000
          -27 callgsubr
          hintmask 1111010100000000
          -35 callgsubr
        </CharString>
        <CharString name="six">
          -12 73 308 72 184 73 hstemhm
          22 89 296 93 -67 92 hintmask 00000000
          hintmask 11110100
          430 485 rmoveto
          90 hlineto
          3 18 2 18 17 vvcurveto
          94 -55 66 -131 -157 -101 -95 -280 -47 vhcurveto
          -8 -47 -4 -41 -35 vvcurveto
          -158 81 -54 134 vhcurveto
          hintmask 11111000
          140 123 107 164 106 -60 76 -133 -66 -64 -26 -45 -45 hvcurveto
          hintmask 11110100
          157 31 50 98 123 hhcurveto
          66 31 -36 -65 -12 -1 -13 -2 -14 hvcurveto
          hintmask 11111000
          -197 -424 rmoveto
          -84 -38 50 74 98 68 86 113 83 32 -52 -70 -93 -64 -93 -110 hvcurveto
          endchar
        </CharString>
        <CharString name="slash">
          -405 735 -20 hstem
          -68 414 vstem
          -68 -49 rmoveto
          70 hlineto
          344 784 rlineto
          -70 hlineto
          endchar
        </CharString>
        <CharString name="space">
          -405 endchar
        </CharString>
        <CharString name="sterling">
          0 79 225 72 249 73 hstem
          471 89 vstem
          -8 hmoveto
          475 hlineto
          14 79 rlineto
          -325 hlineto
          52 225 rlineto
          166 hlineto
          12 72 rlineto
          -165 hlineto
          25 139 -12 callsubr
          -22 -123 rlineto
          -90 hlineto
          -12 -72 rlineto
          90 hlineto
          -40 -225 rlineto
          -75 hlineto
          endchar
        </CharString>
        <CharString name="summation">
          30 -128 88 685 78 -67 67 hstemhm
          -36 762 hintmask 11010000
          -36 -128 rmoveto
          630 hlineto
          16 88 rlineto
          -501 hlineto
          1 4 361 344 -230 333 1 4 rlineto
          470 hlineto
          14 78 rlineto
          -602 hlineto
          hintmask 10110000
          -12 -67 245 -357 -381 -364 rlineto
          endchar
        </CharString>
        <CharString name="t">
          -405 -11 72 392 73 hstem
          41 90 vstem
          203 3 -80 callsubr
          endchar
        </CharString>
        <CharString name="tbar">
          -405 -11 72 202 62 128 73 hstem
          41 90 vstem
          18 325 rmoveto
          -11 -62 rlineto
          64 hlineto
          -28 -163 rlineto
          -1 -8 -1 -8 -12 vvcurveto
          -45 23 -38 71 21 30 6 8 17 vhcurveto
          10 58 rlineto
          -49 hlineto
          -23 -10 11 23 2 0 6 1 5 hvcurveto
          27 155 rlineto
          89 hlineto
          11 62 rlineto
          -89 hlineto
          23 128 rlineto
          89 hlineto
          13 73 rlineto
          -89 hlineto
          34 146 rlineto
          -96 hlineto
          -26 -146 rlineto
          -64 hlineto
          -13 -73 rlineto
          64 hlineto
          -23 -128 rlineto
          endchar
        </CharString>
        <CharString name="tcaron">
          -308 -11 72 392 73 106 91 hstem
          41 90 vstem
          331 527 rmoveto
          44 hlineto
          -19 callsubr
          34 hlineto
          -181 -629 -80 callsubr
          endchar
        </CharString>
        <CharString name="thorn">
          -152 -21 161 -36 callsubr
          185 -20 hstem
          424 92 vstem
          179 466 rmoveto
          45 257 -69 callgsubr
          -157 -896 17 callgsubr
          146 -68 62 -110 -60 -53 -24 -48 -41 hvcurveto
          129 -1 10 callsubr
        </CharString>
        <CharString name="three">
          -12 73 251 73 240 73 hstemhm
          17 90 310 90 -50 93 hintmask 11111000
          405 352 rmoveto
          1 4 rlineto
          hintmask 11110100
          79 31 65 50 100 vvcurveto
          104 -83 57 -130 -125 -109 -76 -130 -14 vhcurveto
          89 hlineto
          93 10 72 40 80 hhcurveto
          64 53 -28 -66 -99 -84 -47 -81 hvcurveto
          -75 hlineto
          -13 -73 rlineto
          72 hlineto
          hintmask 11111000
          74 67 -20 -76 -108 -84 -47 -97 -83 -46 34 66 13 3 19 2 9 hvcurveto
          -89 hlineto
          -5 -18 -1 -18 -13 vvcurveto
          -101 78 -64 151 143 118 85 137 75 -42 47 -60 20 vhcurveto
          endchar
        </CharString>
        <CharString name="threeeighths">
          54 callgsubr
          -30 55 105 56 99 55 hstemhm
          67 -26 callsubr
          154 43 callgsubr
          hintmask 1101111010011000
          55 -12 -38 callgsubr
          -553 -210 -77 callsubr
          hintmask 1101110101011000
          -75 callsubr
          hintmask 1101111010011000
          -32 hlineto
          540 -365 rmoveto
          hintmask 1110111010010100
          -28 callsubr
          hintmask 1101111010101000
          -11 callsubr
          hintmask 1101111010011000
          57 callgsubr
          hintmask 1110111010010100
          -27 callgsubr
          hintmask 1101111010101000
          -35 callgsubr
        </CharString>
        <CharString name="threequarters">
          55 callsubr
          55 105 56 99 55 hstemhm
          76 -26 callsubr
          hintmask 0000000000000000
          hintmask 0101111010000000
          67 -12 -38 callgsubr
          -556 -210 -77 callsubr
          hintmask 1001110101000000
          -75 callsubr
          hintmask 1001111010000000
          -32 hlineto
          436 -544 rmoveto
          63 hlineto
          hintmask 0011111010000000
          14 82 rlineto
          45 hlineto
          hintmask 1001111010000000
          -4 callsubr
          hintmask 0011111010000000
          49 callgsubr
        </CharString>
        <CharString name="tilde">
          -350 619 28 callsubr
          -6 345 hintmask 01100000
          339 723 rmoveto
          -65 hlineto
          hintmask 10100000
          -98 callgsubr
          hintmask 01100000
          -93 callsubr
          endchar
        </CharString>
        <CharString name="trademark">
          317 282 89 253 63 hstem
          104 841 vstem
          186 283 rmoveto
          67 hlineto
          60 341 rlineto
          141 hlineto
          11 63 rlineto
          -350 hlineto
          -11 -63 rlineto
          142 hlineto
          561 -342 rmoveto
          67 hlineto
          71 405 rlineto
          -108 hlineto
          -161 -316 rlineto
          -5 hlineto
          -49 316 rlineto
          -102 hlineto
          -71 -405 rlineto
          61 hlineto
          58 329 rlineto
          5 hlineto
          53 -329 rlineto
          64 hlineto
          170 329 rlineto
          5 hlineto
          endchar
        </CharString>
        <CharString name="two">
          0 84 538 76 hstem
          77 88 289 92 vstem
          -12 hmoveto
          470 hlineto
          15 84 rlineto
          -363 hlineto
          7 11 9 11 13 13 rrcurveto
          127 123 280 91 200 vvcurveto
          116 -80 49 -117 -135 -129 -72 -176 -8 vhcurveto
          88 hlineto
          8 41 rlineto
          71 14 45 60 109 hhcurveto
          86 27 -42 -41 -207 -421 -72 -40 -231 hvcurveto
          endchar
        </CharString>
        <CharString name="u">
          -46 callgsubr
          -51 callgsubr
          hintmask 10111000
          190 526 rmoveto
          -99 callgsubr
          hintmask 01111000
          -84 callsubr
          hintmask 10111000
          -98 callsubr
          endchar
        </CharString>
        <CharString name="uacute">
          -22 callgsubr
          283 591 -97 callgsubr
          -201 -35 callsubr
        </CharString>
        <CharString name="ubreve">
          -46 callgsubr
          100 50 callsubr
          -51 callgsubr
          hintmask 10101110
          486 723 rmoveto
          -61 hlineto
          hintmask 10110110
          -53 callsubr
          hintmask 10101110
          -99 callsubr
          -296 -70 callgsubr
          hintmask 01101110
          -84 callsubr
          hintmask 10101110
          -98 callsubr
          endchar
        </CharString>
        <CharString name="ucircumflex">
          -46 callgsubr
          82 135 -56 56 -51 callgsubr
          hintmask 10110110
          383 -84 callgsubr
          hintmask 10101110
          -30 callgsubr
          -150 -141 rmoveto
          -99 callgsubr
          hintmask 01110110
          -84 callsubr
          hintmask 10110110
          -98 callsubr
          endchar
        </CharString>
        <CharString name="udieresis">
          -46 callgsubr
          122 95 -51 callgsubr
          hintmask 10111100
          196 -68 callgsubr
          -210 -35 callsubr
        </CharString>
        <CharString name="ugrave">
          -22 callgsubr
          289 591 -86 callsubr
          -14 -194 -91 callsubr
        </CharString>
        <CharString name="uhorn">
          -46 callgsubr
          109 52 callsubr
          hintmask 10111100
          554 723 -65 callgsubr
          -21 -54 -47 -28 -71 -7 rrcurveto
          -1 hlineto
          -53 -301 rlineto
          29 callgsubr
          -99 callgsubr
          hintmask 01111100
          -43 callsubr
          endchar
        </CharString>
        <CharString name="uhungarumlaut">
          -22 callgsubr
          215 591 -56 callgsubr
          -253 -35 callsubr
        </CharString>
        <CharString name="umacron">
          -46 callgsubr
          121 72 -51 callgsubr
          hintmask 10111100
          181 627 -73 callsubr
          -4 -173 -91 callsubr
        </CharString>
        <CharString name="underscore">
          -124 53 hstem
          -67 564 vstem
          -67 -124 rmoveto
          555 hlineto
          9 53 rlineto
          -556 hlineto
          endchar
        </CharString>
        <CharString name="underscoredbl">
          -131 -217 53 40 53 hstem
          -75 575 vstem
          -60 -124 rmoveto
          551 hlineto
          9 53 rlineto
          -551 hlineto
          -24 -146 rmoveto
          550 hlineto
          9 53 rlineto
          -550 hlineto
          endchar
        </CharString>
        <CharString name="uni00A0">
          -405 endchar
        </CharString>
        <CharString name="uni00AD">
          12 callgsubr
        </CharString>
        <CharString name="uni00B2">
          -350 335 56 252 56 hstem
          83 31 callsubr
          vstem
          37 335 rmoveto
          252 hlineto
          10 56 rlineto
          -171 hlineto
          -48 callsubr
          endchar
        </CharString>
        <CharString name="uni00B3">
          -350 328 55 105 56 99 55 hstemhm
          48 -26 callsubr
          hintmask 11110100
          154 488 -77 callsubr
          hintmask 11101010
          -75 callsubr
          hintmask 11110100
          -32 hlineto
          endchar
        </CharString>
        <CharString name="uni00B5">
          -52 callgsubr
        </CharString>
        <CharString name="uni00B9">
          -350 328 56 225 40 37 -20 hstem
          51 241 vstem
          51 328 7 callgsubr
          53 302 rlineto
          -30 hlineto
          -37 -19 -57 -14 -33 -4 -8 -40 rcurveline
          88 hlineto
          -39 -225 -69 callgsubr
          endchar
        </CharString>
        <CharString name="uni0162">
          -72 42 callgsubr
          57 -21 603 83 hstemhm
          270 73 hintmask 10111100
          82 686 rmoveto
          -15 -83 rlineto
          236 hlineto
          -106 -603 rlineto
          15 hlineto
          -28 -77 rlineto
          -40 callsubr
          hintmask 01111100
          -9 -49 rlineto
          hintmask 10111100
          -47 callgsubr
          13 36 rlineto
          18 hlineto
          106 603 rlineto
          236 -64 callgsubr
          endchar
        </CharString>
        <CharString name="uni0163">
          -405 42 callgsubr
          25 72 392 73 hstemhm
          41 90 -13 73 hintmask 10011010
          193 453 rmoveto
          89 hlineto
          13 73 rlineto
          -89 hlineto
          34 146 rlineto
          -96 hlineto
          hintmask 10111100
          -26 -146 rlineto
          -64 hlineto
          -13 -73 rlineto
          64 hlineto
          -62 -353 rlineto
          -1 -8 -1 -8 -12 vvcurveto
          -24 6 -22 17 -15 vhcurveto
          hintmask 10111010
          -32 -88 rlineto
          -40 callsubr
          hintmask 01011010
          -9 -49 rlineto
          hintmask 10111010
          -47 callgsubr
          hintmask 10011100
          9 26 rlineto
          -1 6 5 0 6 hhcurveto
          21 30 6 8 17 hvcurveto
          10 58 rlineto
          -49 hlineto
          -23 -10 11 23 2 0 6 1 5 hvcurveto
          endchar
        </CharString>
        <CharString name="uni018F">
          75 -12 81 214 88 246 81 hstem
          43 96 491 96 vstem
          625 371 rmoveto
          -563 hlineto
          -11 -62 rlineto
          -5 -27 -3 -26 -25 vvcurveto
          -154 103 -89 183 117 91 33 65 65 vhcurveto
          78 78 46 147 114 vvcurveto
          173 -112 100 -180 -93 -75 -16 -31 -57 vhcurveto
          -72 -40 -44 -65 -16 -92 rrcurveto
          91 hlineto
          109 19 83 54 149 hhcurveto
          131 80 -57 -130 -18 -2 -20 -3 -21 hvcurveto
          -481 -88 rmoveto
          462 hlineto
          -154 -43 -79 -60 -142 hhcurveto
          -123 -80 45 115 17 2 18 3 19 hvcurveto
          endchar
        </CharString>
        <CharString name="uni019D">
          39 -182 69 134 13 callgsubr
          -101 805 hintmask 11011000
          615 686 rmoveto
          -92 -522 -4 -1 -295 523 rlineto
          -85 hlineto
          -132 -751 rlineto
          -31 -5 -18 29 callsubr
          hintmask 11101000
          104 592 5 1 297 -532 rlineto
          81 -49 callgsubr
          endchar
        </CharString>
        <CharString name="uni01C4">
          650 0 83 520 83 47 135 47 callsubr
          1076 868 -100 callsubr
          -1103 -789 rmoveto
          -74 callsubr
          546 -686 rmoveto
          -82 callsubr
          -407 34 -74 callgsubr
          endchar
        </CharString>
        <CharString name="uni01C5">
          539 0 73 -73 83 370 73 62 135 -120 83 hstemhm
          586 98 hintmask 00000000
          hintmask 10110100
          991 723 -100 callsubr
          -1018 -644 rmoveto
          274 hlineto
          232 160 152 262 hvcurveto
          hintmask 01101100
          188 -115 84 -196 vhcurveto
          -234 hlineto
          148 -603 -74 callgsubr
          hintmask 10101100
          409 -83 rmoveto
          -87 callgsubr
          endchar
        </CharString>
        <CharString name="uni01C6">
          373 -12 73 -61 73 380 73 -61 73 50 135 -28 callgsubr
          455 652 -100 callsubr
          hintmask 01101110
          -340 -644 rmoveto
          -87 callgsubr
          hintmask 10011110
          -314 14 -43 callgsubr
        </CharString>
        <CharString name="uni01C7">
          373 -12 81 -69 83 603 -20 hstemhm
          553 95 hintmask 01110000
          -34 callgsubr
          805 hmoveto
          -87 -492 rlineto
          hintmask 10110000
          -83 callsubr
        </CharString>
        <CharString name="uni01C8">
          95 -182 69 113 83 443 -20 119 98 -37 -20 hstemhm
          18 766 hintmask 11110100
          679 625 -33 callsubr
          -678 -723 rmoveto
          464 -64 callgsubr
          -369 hlineto
          hintmask 11101100
          106 603 -17 callgsubr
          320 -799 -80 callgsubr
        </CharString>
        <CharString name="uni01C9">
          -239 41 callgsubr
          119 98 hstem
          13 437 vstem
          13 hmoveto
          88 hlineto
          -29 callgsubr
          205 -98 -33 callsubr
          -237 -836 -80 callgsubr
        </CharString>
        <CharString name="uni01CA">
          539 -12 81 -48 13 callgsubr
          719 95 hintmask 00000000
          hintmask 01011000
          502 hmoveto
          81 hlineto
          -81 callsubr
          hintmask 10101000
          8 callsubr
          905 154 rmoveto
          -87 -492 rlineto
          -83 callsubr
        </CharString>
        <CharString name="uni01CB">
          261 41 callgsubr
          25.5 154.5 -61 98 -37 -20 hstemhm
          18 932 hintmask 11101010
          845 625 -33 callsubr
          -360 -723 rmoveto
          81 hlineto
          hintmask 11100110
          -81 callsubr
          hintmask 11010010
          8 callsubr
          420 -645 rmoveto
          -10 -57 rlineto
          -6 16 27 -6 24 hhcurveto
          95 24 61 60 11 hvcurveto
          hintmask 11101010
          104 587 -69 callgsubr
          -105 -591 rlineto
          -31 -5 -18 -17 -31 hhcurveto
          endchar
        </CharString>
        <CharString name="uni01CC">
          95 -182 69 134 -4 callgsubr
          119 98 0 callgsubr
          hintmask 11101110
          679 625 -33 callsubr
          -346 4 callsubr
          hintmask 11011110
          -60 callsubr
          hintmask 11101110
          -81 callgsubr
          49 -456 rmoveto
          -10 -57 rlineto
          -6 16 27 -6 24 hhcurveto
          95 24 61 60 11 hvcurveto
          hintmask 11011110
          104 587 -69 callgsubr
          -105 -591 rlineto
          -31 -5 -18 -17 -31 hhcurveto
          endchar
        </CharString>
        <CharString name="uni01CD">
          26 callgsubr
          hstem
          -41 654 vstem
          382 868 -100 callsubr
          50 -606 -101 callgsubr
        </CharString>
        <CharString name="uni01CE">
          -63 callgsubr
          82 135 35 callgsubr
          278 723 -100 callsubr
          hintmask 10111100
          196 -118 rmoveto
          -67 hlineto
          hintmask 11011100
          -106 callgsubr
          hintmask 10111100
          -58 callgsubr
          hintmask 11011000
          -103 callgsubr
          endchar
        </CharString>
        <CharString name="uni01CF">
          -6 callsubr
          67 135 hstem
          31 348 vstem
          170 868 -100 callsubr
          -184 -789 rmoveto
          -71 callgsubr
          endchar
        </CharString>
        <CharString name="uni01D0">
          -32 callgsubr
          82 135 hstem
          35 319 vstem
          145 723 -100 callsubr
          -155 -644 -59 callgsubr
        </CharString>
        <CharString name="uni01D1">
          41 callsubr
          -42 callsubr
          407 868 -100 callsubr
          -118 -800 -107 callgsubr
          endchar
        </CharString>
        <CharString name="uni01D2">
          -32 callsubr
          50 135 hstem
          -41 callgsubr
          vstem
          275 723 -100 callsubr
          -84 -656 -107 callsubr
          endchar
        </CharString>
        <CharString name="uni01D3">
          -50 callsubr
          67 135 hstem
          60 95 15 callsubr
          155 -103 rmoveto
          -105 callgsubr
          76 433 rlineto
          endchar
        </CharString>
        <CharString name="uni01D4">
          -46 callgsubr
          82 135 -51 callgsubr
          hintmask 10111100
          288 723 -100 callsubr
          -143 -118 -91 callsubr
        </CharString>
        <CharString name="uni01D5">
          -50 callsubr
          107 95 71 72 36 callsubr
          332 939 -73 callsubr
          -28 -238 -95 callgsubr
          88 -182 rmoveto
          -105 callgsubr
          76 433 rlineto
          endchar
        </CharString>
        <CharString name="uni01D6">
          -46 callgsubr
          122 95 71 72 -51 callgsubr
          hintmask 10111110
          211 794 -73 callsubr
          -28 -238 -87 callsubr
        </CharString>
        <CharString name="uni01D7">
          -50 callsubr
          107 95 35 132 36 callsubr
          434 903 -97 callgsubr
          -225 -262 -95 callgsubr
          88 -182 rmoveto
          -105 callgsubr
          76 433 rlineto
          endchar
        </CharString>
        <CharString name="uni01D8">
          -46 callgsubr
          122 95 35 132 -51 callgsubr
          hintmask 10111110
          313 758 -97 callgsubr
          -225 -262 -87 callsubr
        </CharString>
        <CharString name="uni01D9">
          -50 callsubr
          107 95 32 135 36 callsubr
          439 1035 -100 callsubr
          -167 -183 -95 callgsubr
          88 -182 rmoveto
          -105 callgsubr
          76 433 rlineto
          endchar
        </CharString>
        <CharString name="uni01DA">
          -46 callgsubr
          122 95 32 135 -51 callgsubr
          hintmask 10111110
          318 890 -100 callsubr
          -167 -183 -87 callsubr
        </CharString>
        <CharString name="uni01DB">
          -50 callsubr
          107 95 35 132 36 callsubr
          440 903 -86 callsubr
          -38 -259 -95 callgsubr
          88 -182 rmoveto
          -105 callgsubr
          76 433 rlineto
          endchar
        </CharString>
        <CharString name="uni01DC">
          -46 callgsubr
          122 95 35 132 -51 callgsubr
          hintmask 10111110
          319 758 -86 callsubr
          -38 -259 -87 callsubr
        </CharString>
        <CharString name="uni01EA">
          95 -182 65 106 82 547 81 hstem
          37 98 201 85 221 98 vstem
          444 699 rmoveto
          -220 -139 -122 -225 -39 hvcurveto
          -6 -31 -3 -32 -33 vvcurveto
          -168 110 -99 187 18 18 1 2 17 vhcurveto
          -28 -25 -23 -31 -44 -7 callsubr
          27 callgsubr
          35 28 31 23 18 hvcurveto
          140 43 89 112 30 175 rrcurveto
          6 31 3 32 33 vvcurveto
          166 -110 98 -186 1 vhcurveto
          191 -347 -58 callsubr
          189 33 99 91 170 hhcurveto
          124 74 -68 -116 -29 -2 -27 -5 -26 hvcurveto
          endchar
        </CharString>
        <CharString name="uni01EB">
          -182 65 105 -20 callgsubr
          hstem
          22 88 105 85 127 88 vstem
          300 538 rmoveto
          -156 -90 -88 -181 -27 hvcurveto
          -33 callgsubr
          9 9 0 1 9 vhcurveto
          -26 -24 -22 -30 -43 -7 callsubr
          27 callgsubr
          35 28 31 23 18 hvcurveto
          1 vlineto
          86 35 53 82 19 131 rrcurveto
          3 30 3 24 22 vvcurveto
          129 -79 76 -136 vhcurveto
          121 -269 rmoveto
          -146 -21 -55 -61 -105 hhcurveto
          -85 -43 43 78 -2 hvcurveto
          20 1 26 4 28 vhcurveto
          146 21 55 62 105 hhcurveto
          86 43 -43 -79 2 hvcurveto
          -20 -2 -26 -4 -28 vhcurveto
          endchar
        </CharString>
        <CharString name="uni01F1">
          650 0 83 520 -1 callgsubr
          546 -686 rmoveto
          -82 callsubr
          -407 34 -74 callgsubr
          endchar
        </CharString>
        <CharString name="uni01F2">
          539 0 73 -73 83 370 73 77 83 hstemhm
          586 98 hintmask 10111000
          -18 callgsubr
          hintmask 01111000
          148 -603 -74 callgsubr
          hintmask 10111000
          409 -83 rmoveto
          -87 callgsubr
          endchar
        </CharString>
        <CharString name="uni01F3">
          373 -12 73 -61 73 380 73 -61 73 185 -20 -28 callgsubr
          hintmask 01101110
          160 -71 rmoveto
          -87 callgsubr
          hintmask 10011110
          -314 14 -43 callgsubr
        </CharString>
        <CharString name="uni01F4">
          -27 callsubr
          38 132 -14 callgsubr
          hintmask 10111101
          432 736 -97 callgsubr
          hintmask 01111110
          34 -868 -94 callsubr
        </CharString>
        <CharString name="uni01F5">
          -37 callgsubr
          85 132 hstemhm
          21 91 hintmask 11101100
          292 591 -97 callgsubr
          -40 -9 callgsubr
          hintmask 11011100
          16 callgsubr
          hintmask 11101100
          -95 callsubr
        </CharString>
        <CharString name="uni0200">
          39 callgsubr
          132 hstem
          -41 654 vstem
          403 736 -88 callgsubr
          11 -553 -101 callgsubr
        </CharString>
        <CharString name="uni0201">
          -63 callgsubr
          85 132 35 callgsubr
          299 591 -88 callgsubr
          hintmask 10111100
          157 -65 rmoveto
          -67 hlineto
          hintmask 11011100
          -106 callgsubr
          hintmask 10111100
          -58 callgsubr
          hintmask 11011000
          -103 callgsubr
          endchar
        </CharString>
        <CharString name="uni0202">
          -71 callsubr
          118 64 hstem
          -41 654 vstem
          568 751 -92 callgsubr
          -30 -568 -101 callgsubr
        </CharString>
        <CharString name="uni0203">
          -63 callgsubr
          153 64 35 callgsubr
          464 606 -92 callgsubr
          hintmask 10111100
          116 -80 rmoveto
          -67 hlineto
          hintmask 11011100
          -106 callgsubr
          hintmask 10111100
          -58 callgsubr
          hintmask 11011000
          -103 callgsubr
          endchar
        </CharString>
        <CharString name="uni0204">
          39 callsubr
          132 55 callgsubr
          403 736 -88 callgsubr
          -448 -736 rmoveto
          -103 callsubr
          endchar
        </CharString>
        <CharString name="uni0205">
          -65 callsubr
          53 132 -6 callgsubr
          318 591 -88 callgsubr
          -267 -352 -106 callsubr
          endchar
        </CharString>
        <CharString name="uni0206">
          -64 callsubr
          118 64 55 callgsubr
          568 751 -92 callgsubr
          -489 -751 rmoveto
          -103 callsubr
          endchar
        </CharString>
        <CharString name="uni0207">
          -65 callsubr
          121 64 -6 callgsubr
          483 606 -92 callgsubr
          -308 -367 -106 callsubr
          endchar
        </CharString>
        <CharString name="uni0208">
          -405 6 callsubr
          31 299 vstem
          191 736 -88 callgsubr
          -223 -736 rmoveto
          -71 callgsubr
          endchar
        </CharString>
        <CharString name="uni0209">
          -405 21 19 callgsubr
          hstem
          29 276 vstem
          166 591 -88 callgsubr
          -194 -591 -59 callgsubr
        </CharString>
        <CharString name="uni020A">
          -6 callsubr
          138 64 hstem
          31 327 vstem
          356 751 -92 callgsubr
          -264 -751 rmoveto
          -71 callgsubr
          endchar
        </CharString>
        <CharString name="uni020B">
          -32 callgsubr
          153 64 hstem
          35 298 vstem
          331 606 -92 callgsubr
          -235 -606 -59 callgsubr
        </CharString>
        <CharString name="uni020C">
          -49 callsubr
          37 132 -42 callsubr
          428 736 -88 callgsubr
          -157 -747 -107 callgsubr
          endchar
        </CharString>
        <CharString name="uni020D">
          -32 callsubr
          53 132 hstem
          -41 callgsubr
          vstem
          296 591 -88 callgsubr
          -123 -603 -107 callsubr
          endchar
        </CharString>
        <CharString name="uni020E">
          -49 callsubr
          105 64 -42 callsubr
          593 751 -92 callgsubr
          -198 -762 -107 callgsubr
          endchar
        </CharString>
        <CharString name="uni020F">
          -32 callsubr
          121 64 hstem
          -41 callgsubr
          vstem
          461 606 -92 callgsubr
          -164 -618 -107 callsubr
          endchar
        </CharString>
        <CharString name="uni0210">
          27 callsubr
          50 132 hstem
          581 98 vstem
          430 736 -88 callgsubr
          -475 -736 rmoveto
          -90 callsubr
          endchar
        </CharString>
        <CharString name="uni0211">
          -7 callgsubr
          81 132 hstemhm
          13 348 hintmask 11001100
          207 591 -88 callgsubr
          -257 -591 -70 callsubr
        </CharString>
        <CharString name="uni0212">
          27 callsubr
          118 64 hstem
          581 98 vstem
          595 751 -92 callgsubr
          -516 -751 rmoveto
          -90 callsubr
          endchar
        </CharString>
        <CharString name="uni0213">
          -7 callgsubr
          149 64 hstemhm
          13 361 hintmask 11001100
          372 606 -92 callgsubr
          -298 -606 -70 callsubr
        </CharString>
        <CharString name="uni0214">
          -50 callsubr
          70 132 36 callsubr
          430 736 -88 callgsubr
          116 -50 rmoveto
          -105 callgsubr
          76 433 rlineto
          endchar
        </CharString>
        <CharString name="uni0215">
          -22 callgsubr
          309 591 -88 callgsubr
          -182 -65 -91 callsubr
        </CharString>
        <CharString name="uni0216">
          -50 callsubr
          138 64 36 callsubr
          595 751 -92 callgsubr
          75 -65 rmoveto
          -105 callgsubr
          76 433 rlineto
          endchar
        </CharString>
        <CharString name="uni0217">
          -46 callgsubr
          153 64 -51 callgsubr
          hintmask 10111100
          474 606 -92 callgsubr
          -223 -80 -91 callsubr
        </CharString>
        <CharString name="uni021A">
          -72 -149 91 79 -36 callgsubr
          -144 -833 -78 callgsubr
        </CharString>
        <CharString name="uni021B">
          -405 -149 91 47 72 392 73 hstem
          41 90 vstem
          203 3 -80 callsubr
          -196 -233 -78 callgsubr
        </CharString>
        <CharString name="uni0232">
          46 callsubr
          106 72 hstem
          76 636 vstem
          275 772 -73 callsubr
          -62 -844 rmoveto
          -86 callgsubr
          endchar
        </CharString>
        <CharString name="uni0232.loclGUA">
          -15 callgsubr
          106 72 32 callsubr
          275 772 -73 callsubr
          190 -561 -96 callgsubr
        </CharString>
        <CharString name="uni0233">
          -31 callsubr
          121 72 hstemhm
          -40 563 hintmask 10111000
          162 627 -73 callsubr
          -204 -816 rmoveto
          hintmask 01111000
          -11 -57 rlineto
          hintmask 10111000
          -97 callsubr
          endchar
        </CharString>
        <CharString name="uni0233.loclGUA">
          -15 callsubr
          121 72 hstem
          38 91 vstem
          190 627 -73 callsubr
          -2 -881 -101 callsubr
        </CharString>
        <CharString name="uni0237">
          -461 -182 69 639 -20 hstem
          -107 301 vstem
          -97 -113 -80 callgsubr
        </CharString>
        <CharString name="uni0259">
          -12 73 153 73 178 73 hstem
          30 88 316 91 vstem
          431 287 rmoveto
          -387 hlineto
          -8 -44 rlineto
          -4 -23 -2 -23 -20 vvcurveto
          -120 68 -69 123 90 66 20 46 48 vhcurveto
          64 61 36 127 95 vvcurveto
          128 -72 73 -131 -69 -55 -12 -24 -43 vhcurveto
          -54 -32 -34 -51 -12 -72 rrcurveto
          86 hlineto
          85 15 70 33 79 hhcurveto
          86 43 -40 -91 -14 -1 -16 -2 -17 hvcurveto
          -308 -73 rmoveto
          293 hlineto
          -109 -29 -61 -44 -90 hhcurveto
          -73 -45 29 77 14 2 16 3 17 hvcurveto
          endchar
        </CharString>
        <CharString name="uni0272">
          -182 69 134 -4 callgsubr
          0 callgsubr
          hintmask 11101100
          349 538 rmoveto
          20 callsubr
          hvcurveto
          -7 hlineto
          hintmask 11011100
          71 -64 vlineto
          -104 -591 14 callgsubr
          64 362 rlineto
          hintmask 11101100
          -81 callgsubr
          -60 -343 rlineto
          -78 callsubr
          vhcurveto
          endchar
        </CharString>
        <CharString name="uni02BC">
          -482 490 196 -91 91 hstemhm
          85 122 hintmask 00000000
          hintmask 10100000
          85 490 rmoveto
          46 hlineto
          hintmask 01100000
          -19 callsubr
          32 hlineto
          endchar
        </CharString>
        <CharString name="uni02C9">
          -350 627 72 hstem
          6 318 vstem
          6 627 -73 callsubr
          endchar
        </CharString>
        <CharString name="uni030F">
          -683 591 132 hstem
          -295 276 vstem
          -158 591 -88 callgsubr
          endchar
        </CharString>
        <CharString name="uni0311">
          -683 659 64 hstem
          -253 293 vstem
          38 606 -92 callgsubr
          endchar
        </CharString>
        <CharString name="uni031B">
          -683 433 56 89 108 hstem
          -616 224 vstem
          -502 686 -65 callgsubr
          -21 -54 -47 -28 -71 -7 rrcurveto
          -56 vlineto
          126 13 72 71 17 115 9 54 rcurveline
          endchar
        </CharString>
        <CharString name="uni0326">
          -683 -149 91 hstem
          -173 121 vstem
          -173 -230 -78 callgsubr
        </CharString>
        <CharString name="uni1E0C">
          39 -173 95 78 83 520 83 hstem
          586 98 vstem
          18 hmoveto
          -61 callsubr
          -46 -256 -102 callgsubr
          endchar
        </CharString>
        <CharString name="uni1E0D">
          50 callgsubr
          37 callgsubr
          hintmask 10111110
          370 hmoveto
          65 hlineto
          -29 callgsubr
          -45 -257 -47 callsubr
          hvcurveto
          hintmask 11011110
          -11 callgsubr
          -66 -234 -102 callgsubr
          endchar
        </CharString>
        <CharString name="uni1E24">
          39 -173 95 99 -23 callsubr
          -301 -482 -102 callgsubr
          endchar
        </CharString>
        <CharString name="uni1E25">
          -173 95 99 42 callsubr
          hstem
          415 91 vstem
          183 467 rmoveto
          45 256 66 callgsubr
          53 301 rlineto
          -81 callgsubr
          -60 -343 rlineto
          -78 callsubr
          -59 -62 -29 -42 -41 vhcurveto
          -29 -640 -102 callgsubr
          endchar
        </CharString>
        <CharString name="uni1E44">
          39 21 -53 callgsubr
          107 95 hstemhm
          18 686 hintmask 10111000
          410 -12 callgsubr
          75 -868 rmoveto
          81 hlineto
          -81 callsubr
          hintmask 11011000
          8 callsubr
          endchar
        </CharString>
        <CharString name="uni1E45">
          19 callsubr
          122 95 0 callgsubr
          hintmask 11011100
          298 -13 callsubr
          35 -723 -79 callsubr
        </CharString>
        <CharString name="uni1E5A">
          39 -173 95 99 -44 callsubr
          -194 -539 -102 callgsubr
          endchar
        </CharString>
        <CharString name="uni1E5B">
          -350 -173 95 99 4 callgsubr
          hstemhm
          -17 378 -17 callsubr
          -123 -699 -102 callgsubr
          endchar
        </CharString>
        <CharString name="uni1E62">
          -16 50 callgsubr
          81 548 81 -21 callgsubr
          hintmask 00000000
          hintmask 11101010
          529 493 -100 callgsubr
          hintmask 11101100
          -315 -666 -102 callgsubr
          endchar
        </CharString>
        <CharString name="uni1E63">
          -183 50 callgsubr
          72 405 73 -22 callsubr
          hintmask 00000000
          hintmask 11101010
          374 375 -94 callgsubr
          -246 -557 -102 callgsubr
          endchar
        </CharString>
        <CharString name="uni1E6C">
          -72 -173 95 99 -36 callgsubr
          -132 -776 -102 callgsubr
          endchar
        </CharString>
        <CharString name="uni1E6D">
          -405 -173 95 67 72 392 73 hstem
          41 90 vstem
          203 3 -80 callsubr
          -184 -176 -102 callgsubr
          endchar
        </CharString>
        <CharString name="uni1E92">
          -72 -173 95 78 83 520 83 hstem
          -37 677 vstem
          -37 hmoveto
          -82 callsubr
          214 -222 -102 callgsubr
          endchar
        </CharString>
        <CharString name="uni1E93">
          -183 -173 95 78 73 380 73 hstem
          -26 526 vstem
          -26 hmoveto
          -87 callgsubr
          148 -220 -102 callgsubr
          endchar
        </CharString>
        <CharString name="uni1E9E">
          115 0 83 215 83 236 81 hstemhm
          587 97 -77 99 hintmask 11110000
          18 hmoveto
          95 hlineto
          73 414 rlineto
          138 24 92 65 137 hhcurveto
          hintmask 11101000
          118 50 -42 -65 -74 -59 -55 -71 hvcurveto
          -186 hlineto
          -15 -83 rlineto
          189 hlineto
          hintmask 11110000
          79 43 -35 -52 -61 -52 -67 -83 hvcurveto
          -214 hlineto
          -15 -83 rlineto
          227 hlineto
          137 97 88 130 67 -37 44 -62 18 hvcurveto
          4 vlineto
          hintmask 11101000
          66 22 55 74 77 vvcurveto
          106 -99 68 -162 -183 -138 -93 -184 -31 vhcurveto
          endchar
        </CharString>
        <CharString name="uni1EA0">
          25 callgsubr
          hstem
          -41 654 vstem
          477 183 -105 callsubr
          -246 -439 -102 callgsubr
          endchar
        </CharString>
        <CharString name="uni1EA1">
          50 callgsubr
          -48 callgsubr
          -45 callsubr
          hintmask 00000000
          hintmask 11011100
          519 526 rmoveto
          -67 hlineto
          hintmask 11101100
          -106 callgsubr
          hintmask 11011100
          -58 callgsubr
          hintmask 11101000
          -103 callgsubr
          -73 -234 -102 callgsubr
          endchar
        </CharString>
</ttFont>
